<svg width="61" height="81" viewBox="0 0 61 81" fill="none" xmlns="http://www.w3.org/2000/svg">
<circle cx="30.5" cy="73.5" r="3.5" fill="white"/>
<g clip-path="url(#clip0_165_110)">
<mask id="mask0_165_110" style="mask-type:alpha" maskUnits="userSpaceOnUse" x="1" y="3" width="59" height="59">
<path d="M30.5 62C46.7924 62 60 48.7924 60 32.5C60 16.2076 46.7924 3 30.5 3C14.2076 3 1 16.2076 1 32.5C1 48.7924 14.2076 62 30.5 62Z" fill="black"/>
</mask>
<g mask="url(#mask0_165_110)">
<path d="M30.5001 61.0166C46.2494 61.0166 59.0167 48.2493 59.0167 32.4999C59.0167 16.7506 46.2494 3.98328 30.5001 3.98328C14.7507 3.98328 1.9834 16.7506 1.9834 32.4999C1.9834 48.2493 14.7507 61.0166 30.5001 61.0166Z" fill="black" stroke="white" stroke-width="6"/>
<path d="M50.0056 54.6315L23.6634 20.7H18.7002V44.2901H22.6708V25.7424L46.8888 57.0325C47.9816 56.3012 49.0226 55.4985 50.0056 54.6315Z" fill="url(#paint0_linear_165_110)"/>
<path d="M42.6277 20.7H38.6943V44.3H42.6277V20.7Z" fill="url(#paint1_linear_165_110)"/>
</g>
</g>
<defs>
<linearGradient id="paint0_linear_165_110" x1="36.728" y1="41.1861" x2="48.3641" y2="55.6083" gradientUnits="userSpaceOnUse">
<stop stop-color="white"/>
<stop offset="1" stop-color="white" stop-opacity="0"/>
</linearGradient>
<linearGradient id="paint1_linear_165_110" x1="40.661" y1="20.7" x2="40.5951" y2="38.0312" gradientUnits="userSpaceOnUse">
<stop stop-color="white"/>
<stop offset="1" stop-color="white" stop-opacity="0"/>
</linearGradient>
<clipPath id="clip0_165_110">
<rect width="59" height="59" fill="white" transform="translate(1 3)"/>
</clipPath>
</defs>
</svg>
