<svg width="42" height="42" viewBox="0 0 42 42" fill="none" xmlns="http://www.w3.org/2000/svg">
<g clip-path="url(#clip0_150_9)">
<mask id="mask0_150_9" style="mask-type:alpha" maskUnits="userSpaceOnUse" x="0" y="0" width="42" height="42">
<path d="M21 42C32.598 42 42 32.598 42 21C42 9.40202 32.598 0 21 0C9.40202 0 0 9.40202 0 21C0 32.598 9.40202 42 21 42Z" fill="black"/>
</mask>
<g mask="url(#mask0_150_9)">
<path d="M21.0002 41.2999C32.2116 41.2999 41.3002 32.2113 41.3002 21C41.3002 9.78857 32.2116 0.699951 21.0002 0.699951C9.78881 0.699951 0.700195 9.78857 0.700195 21C0.700195 32.2113 9.78881 41.2999 21.0002 41.2999Z" fill="#D4D4D4" stroke="white" stroke-width="6"/>
<path d="M34.8853 36.7546L16.1332 12.6H12.6001V29.393H15.4266V16.1895L32.6665 38.4638C33.4445 37.9432 34.1855 37.3718 34.8853 36.7546Z" fill="url(#paint0_linear_150_9)"/>
<path d="M29.6335 12.6H26.8335V29.4H29.6335V12.6Z" fill="url(#paint1_linear_150_9)"/>
</g>
</g>
<defs>
<linearGradient id="paint0_linear_150_9" x1="25.4334" y1="27.1833" x2="33.7168" y2="37.45" gradientUnits="userSpaceOnUse">
<stop stop-color="white"/>
<stop offset="1" stop-color="white" stop-opacity="0"/>
</linearGradient>
<linearGradient id="paint1_linear_150_9" x1="28.2335" y1="12.6" x2="28.1866" y2="24.9375" gradientUnits="userSpaceOnUse">
<stop stop-color="white"/>
<stop offset="1" stop-color="white" stop-opacity="0"/>
</linearGradient>
<clipPath id="clip0_150_9">
<rect width="42" height="42" fill="white"/>
</clipPath>
</defs>
</svg>
