<svg width="29" height="35" viewBox="0 0 29 35" fill="none" xmlns="http://www.w3.org/2000/svg">
<g clip-path="url(#clip0_150_17)">
<path d="M28.7128 26.5908L16.7097 1.10066C16.5605 0.787016 16.3294 0.519531 16.0406 0.326506C15.7519 0.133482 15.4164 0.0220977 15.0695 0.00414105C14.7221 -0.019146 14.3748 0.053291 14.0656 0.213574C13.7564 0.373858 13.4971 0.615851 13.3158 0.913238L0.297288 21.9989C0.0993347 22.3173 -0.00375486 22.6855 0.000104524 23.0604C0.00396391 23.4353 0.114612 23.8013 0.319078 24.1155L6.68388 33.9721C6.92468 34.3421 7.27864 34.6243 7.69297 34.7767C8.1073 34.9291 8.55978 34.9435 8.98293 34.8176L27.4538 29.354C27.7319 29.2727 27.9893 29.1326 28.2086 28.9433C28.428 28.7539 28.6041 28.5197 28.7251 28.2564C28.8444 27.9944 28.9051 27.7097 28.9032 27.4219C28.9012 27.1341 28.8365 26.8502 28.7137 26.5899L28.7128 26.5908ZM26.0254 27.6841L10.3519 32.3187C9.87374 32.461 9.41479 32.0465 9.51426 31.564L15.114 4.75127C15.2187 4.24964 15.9115 4.17016 16.1305 4.63442L26.4966 26.6475C26.5424 26.7456 26.5664 26.8524 26.567 26.9607C26.5675 27.069 26.5445 27.176 26.4997 27.2746C26.4548 27.3731 26.3891 27.4607 26.3071 27.5314C26.2251 27.6021 26.1287 27.6541 26.0247 27.6839L26.0254 27.6841Z" fill="#D4D4D4"/>
</g>
<defs>
<clipPath id="clip0_150_17">
<rect width="28.9032" height="35" fill="white"/>
</clipPath>
</defs>
</svg>
