<svg width="61" height="81" viewBox="0 0 61 81" fill="none" xmlns="http://www.w3.org/2000/svg">
<circle cx="30.5" cy="73.5" r="3.5" fill="white"/>
<g filter="url(#filter0_d_163_98)">
<rect x="2" y="2" width="57" height="57" rx="12" fill="white"/>
<g clip-path="url(#clip0_163_98)">
<path d="M44.8089 39.9284L32.7656 14.1145C32.616 13.7969 32.384 13.526 32.0943 13.3305C31.8047 13.1351 31.468 13.0223 31.12 13.0041C30.7713 12.9805 30.423 13.0538 30.1127 13.2162C29.8025 13.3785 29.5423 13.6236 29.3604 13.9247L16.2983 35.2782C16.0997 35.6006 15.9962 35.9735 16.0001 36.3531C16.004 36.7328 16.115 37.1034 16.3201 37.4216L22.7063 47.4034C22.9479 47.7781 23.303 48.0639 23.7187 48.2182C24.1344 48.3725 24.5884 48.3871 25.013 48.2596L43.5457 42.7266C43.8248 42.6443 44.083 42.5024 44.3031 42.3107C44.5232 42.1189 44.6999 41.8817 44.8213 41.6151C44.9409 41.3498 45.0019 41.0614 45 40.77C44.998 40.4785 44.9331 40.191 44.8098 39.9274L44.8089 39.9284ZM42.1126 41.0355L26.3865 45.729C25.9068 45.8731 25.4463 45.4533 25.5461 44.9647L31.1646 17.8115C31.2696 17.3035 31.9647 17.223 32.1845 17.6931L42.5853 39.9858C42.6313 40.0851 42.6554 40.1933 42.6559 40.3029C42.6564 40.4126 42.6334 40.521 42.5884 40.6208C42.5434 40.7206 42.4775 40.8093 42.3952 40.8809C42.3129 40.9525 42.2162 41.0052 42.1118 41.0354L42.1126 41.0355Z" fill="black"/>
</g>
</g>
<defs>
<filter id="filter0_d_163_98" x="1.3" y="2" width="58.4" height="58.7" filterUnits="userSpaceOnUse" color-interpolation-filters="sRGB">
<feFlood flood-opacity="0" result="BackgroundImageFix"/>
<feColorMatrix in="SourceAlpha" type="matrix" values="0 0 0 0 0 0 0 0 0 0 0 0 0 0 0 0 0 0 127 0" result="hardAlpha"/>
<feOffset dy="1"/>
<feGaussianBlur stdDeviation="0.35"/>
<feComposite in2="hardAlpha" operator="out"/>
<feColorMatrix type="matrix" values="0 0 0 0 0 0 0 0 0 0 0 0 0 0 0 0 0 0 0.25 0"/>
<feBlend mode="normal" in2="BackgroundImageFix" result="effect1_dropShadow_163_98"/>
<feBlend mode="normal" in="SourceGraphic" in2="effect1_dropShadow_163_98" result="shape"/>
</filter>
<clipPath id="clip0_163_98">
<rect width="29" height="35.4444" fill="white" transform="translate(16 13)"/>
</clipPath>
</defs>
</svg>
