<svg width="40" height="35" viewBox="0 0 40 35" fill="none" xmlns="http://www.w3.org/2000/svg">
<g clip-path="url(#clip0_150_2)">
<path d="M32.3318 11.3326C31.9133 11.1891 31.4912 11.0562 31.066 10.9339C31.1375 10.6423 31.2032 10.3541 31.2616 10.0711C32.2198 5.42267 31.5934 1.67782 29.4538 0.444842C27.4024 -0.737176 24.0474 0.495346 20.6591 3.44225C20.3252 3.7332 19.9987 4.03254 19.6799 4.33997C19.4665 4.13554 19.2493 3.93507 19.0284 3.73868C15.4773 0.587758 11.9179 -0.740246 9.78065 0.496267C7.73107 1.68197 7.12416 5.20239 7.98682 9.60778C8.07265 10.0441 8.16956 10.4781 8.27745 10.9095C7.77362 11.0526 7.28745 11.2049 6.82217 11.367C2.65879 12.8176 0 15.091 0 17.449C0 19.8844 2.85434 22.3272 7.19068 23.8084C7.54223 23.928 7.89671 24.0388 8.25379 24.1408C8.13782 24.6054 8.03487 25.0732 7.94504 25.5435C7.12263 29.8725 7.76486 33.3097 9.80892 34.4879C11.9201 35.7046 15.4635 34.4541 18.9137 31.44C19.1935 31.1949 19.4671 30.9429 19.7343 30.6842C20.0795 31.0171 20.434 31.3403 20.7972 31.6535C24.1394 34.5275 27.4401 35.688 29.4822 34.5066C31.5914 33.2864 32.2769 29.5939 31.3869 25.1014C31.3168 24.7495 31.2382 24.3993 31.1511 24.0511C31.4 23.9774 31.6442 23.9016 31.8823 23.8227C36.3904 22.3301 39.3235 19.917 39.3235 17.449C39.3235 15.0824 36.5789 12.7937 32.3318 11.3326ZM31.3541 22.2293C31.139 22.3003 30.9184 22.369 30.6935 22.4357C30.1959 20.8612 29.5243 19.187 28.7023 17.4571C29.4867 15.7685 30.1324 14.1157 30.6161 12.5515C31.0184 12.6678 31.4087 12.7905 31.7851 12.9199C35.424 14.1719 37.6437 16.0228 37.6437 17.449C37.6437 18.9681 35.2465 20.9403 31.3541 22.2293ZM29.739 25.4275C30.1326 27.4139 30.1886 29.2099 29.928 30.6141C29.6939 31.8758 29.2229 32.7168 28.6404 33.0538C27.4013 33.7707 24.7511 32.8389 21.8929 30.3809C21.555 30.0897 21.2253 29.7893 20.9041 29.4798C22.0123 28.2688 23.1196 26.8609 24.2004 25.2973C26.1015 25.1287 27.8974 24.853 29.5261 24.4768C29.6063 24.8002 29.6776 25.1174 29.739 25.4275ZM13.4063 32.9299C12.1955 33.3571 11.2312 33.3694 10.6482 33.0335C9.40785 32.3186 8.89219 29.5587 9.59556 25.8567C9.67917 25.4192 9.7749 24.9842 9.88265 24.552C11.4934 24.9082 13.2763 25.1642 15.1818 25.3186C16.27 26.8487 17.4093 28.255 18.5575 29.4864C18.3135 29.7224 18.0637 29.9523 17.8083 30.176C16.2826 31.5087 14.7537 32.4543 13.4063 32.9299ZM7.73414 22.2199C5.81666 21.5649 4.23312 20.7137 3.14773 19.7848C2.17232 18.9502 1.68001 18.1214 1.68001 17.449C1.68001 16.018 3.81469 14.1928 7.37516 12.9523C7.80726 12.8018 8.25948 12.6598 8.72875 12.5266C9.22091 14.1262 9.86637 15.7986 10.6453 17.4898C9.85623 19.2061 9.20155 20.9053 8.70463 22.5237C8.37869 22.4304 8.0551 22.3291 7.73414 22.2199ZM9.63549 9.28526C8.89649 5.51094 9.38726 2.66381 10.6224 1.94923C11.9379 1.18813 14.8469 2.27328 17.9131 4.99407C18.113 5.1719 18.3097 5.35332 18.5031 5.53826C17.3606 6.76434 16.2317 8.16019 15.1532 9.68116C13.3038 9.85247 11.5335 10.1276 9.90584 10.4961C9.80556 10.0949 9.71542 9.69104 9.63549 9.28526ZM26.5979 13.4711C26.2135 12.8075 25.8148 12.1522 25.4021 11.5058C26.6567 11.6643 27.8589 11.8748 28.9877 12.1321C28.6489 13.2177 28.2265 14.3526 27.7292 15.5162C27.3658 14.827 26.9886 14.1452 26.5979 13.4711ZM19.6807 6.73809C20.4555 7.57701 21.2315 8.51357 21.9948 9.5298C20.4464 9.45672 18.8954 9.45641 17.3471 9.52888C18.1111 8.52201 18.8937 7.58668 19.6807 6.73809ZM12.719 13.4826C12.3332 14.1513 11.9631 14.8289 11.6089 15.5148C11.1198 14.3553 10.7012 13.2152 10.3594 12.1143C11.4814 11.8634 12.6778 11.6583 13.9245 11.5027C13.5072 12.1531 13.1053 12.8134 12.719 13.4826ZM13.9603 23.5148C12.6723 23.3711 11.4579 23.1766 10.3363 22.9325C10.6834 21.8119 11.1112 20.6475 11.6109 19.4632C11.9665 20.1496 12.3381 20.8276 12.7256 21.4966C13.1241 22.1843 13.5367 22.8579 13.9603 23.5148ZM19.727 28.2781C18.9307 27.4197 18.1366 26.47 17.361 25.4485C18.114 25.478 18.8816 25.493 19.6618 25.493C20.4633 25.493 21.2556 25.4751 22.0355 25.4404C21.2697 26.4802 20.4966 27.4314 19.727 28.2781ZM27.7451 19.4027C28.2707 20.6001 28.7137 21.7583 29.0655 22.8597C27.9254 23.1198 26.6944 23.3292 25.3973 23.4847C25.8129 22.8262 26.2154 22.1595 26.6045 21.4851C27.0001 20.7995 27.3804 20.1052 27.7451 19.4027ZM25.1494 20.6463C24.5537 21.6804 23.9246 22.6948 23.2629 23.6881C22.0644 23.7729 20.8633 23.815 19.6618 23.8144C18.438 23.8144 17.2477 23.7763 16.1014 23.702C15.4225 22.7111 14.7814 21.6949 14.1794 20.6555C13.5802 19.6216 13.0206 18.5654 12.5017 17.4891C13.0193 16.4125 13.5773 15.3558 14.1744 14.3211L14.1743 14.3213C14.7712 13.2863 15.4072 12.2745 16.081 11.2878C17.2504 11.1994 18.4496 11.1533 19.6616 11.1533C20.8791 11.1533 22.08 11.1998 23.2491 11.2889C23.9161 12.2741 24.5481 13.2825 25.1439 14.3122C25.743 15.3446 26.3084 16.3962 26.8391 17.4653C26.3138 18.5453 25.7502 19.6063 25.1494 20.6463ZM28.6148 1.89918C29.9315 2.65813 30.4436 5.71863 29.6163 9.73212C29.5635 9.98817 29.5042 10.249 29.4397 10.5135C27.808 10.1371 26.0365 9.85723 24.1817 9.68331C23.1012 8.14561 21.9815 6.7476 20.8576 5.53734C21.1522 5.25358 21.4537 4.97718 21.762 4.70839C24.6652 2.18364 27.3785 1.18675 28.6148 1.89918ZM19.6618 13.9398C21.6011 13.9398 23.1732 15.511 23.1732 17.449C23.1732 19.3871 21.6011 20.9582 19.6618 20.9582C17.7225 20.9582 16.1503 19.3871 16.1503 17.449C16.1503 15.511 17.7225 13.9398 19.6618 13.9398Z" fill="#D4D4D4"/>
</g>
<defs>
<clipPath id="clip0_150_2">
<rect width="39.3235" height="35" fill="white"/>
</clipPath>
</defs>
</svg>
