<svg width="61" height="81" viewBox="0 0 61 81" fill="none" xmlns="http://www.w3.org/2000/svg">
<circle cx="30.5" cy="73.5" r="3.5" fill="white"/>
<g filter="url(#filter0_d_163_69)">
<rect x="2" y="2" width="57" height="57" rx="12" fill="#1A4A6A"/>
<g clip-path="url(#clip0_163_69)">
<path d="M42.4214 24.685C42.0276 24.5497 41.6305 24.4244 41.2304 24.3091C41.2976 24.0341 41.3595 23.7625 41.4144 23.4956C42.316 19.1128 41.7266 15.5819 39.7134 14.4194C37.7832 13.3049 34.6265 14.467 31.4384 17.2456C31.1242 17.5199 30.817 17.8021 30.5171 18.092C30.3162 17.8992 30.1119 17.7102 29.9041 17.525C26.5628 14.5542 23.2137 13.3021 21.2027 14.4679C19.2743 15.5859 18.7032 18.9051 19.5149 23.0588C19.5957 23.4701 19.6868 23.8794 19.7884 24.2861C19.3143 24.421 18.8569 24.5646 18.4191 24.7174C14.5017 26.0852 12 28.2286 12 30.4519C12 32.7482 14.6857 35.0514 18.7658 36.4479C19.0966 36.5607 19.4301 36.6652 19.7661 36.7613C19.657 37.1994 19.5601 37.6404 19.4756 38.0839C18.7018 42.1655 19.3061 45.4063 21.2293 46.5171C23.2158 47.6643 26.5498 46.4853 29.7961 43.6434C30.0594 43.4123 30.3168 43.1748 30.5682 42.9308C30.8931 43.2447 31.2266 43.5495 31.5684 43.8447C34.7131 46.5545 37.8188 47.6487 39.7402 46.5348C41.7247 45.3843 42.3698 41.9028 41.5324 37.6671C41.4664 37.3352 41.3924 37.005 41.3105 36.6768C41.5446 36.6073 41.7745 36.5358 41.9985 36.4614C46.2402 35.0541 49 32.7789 49 30.4519C49 28.2205 46.4175 26.0626 42.4214 24.685ZM41.5014 34.959C41.2991 35.026 41.0915 35.0907 40.8799 35.1537C40.4117 33.6691 39.7798 32.0906 39.0064 30.4596C39.7444 28.8675 40.352 27.3091 40.8071 25.8342C41.1856 25.9439 41.5529 26.0596 41.907 26.1816C45.3309 27.3621 47.4194 29.1072 47.4194 30.4519C47.4194 31.8842 45.1639 33.7437 41.5014 34.959ZM39.9818 37.9745C40.3521 39.8474 40.4049 41.5408 40.1596 42.8647C39.9393 44.0543 39.4962 44.8473 38.9481 45.165C37.7822 45.8409 35.2886 44.9624 32.5993 42.6448C32.2814 42.3703 31.9712 42.087 31.669 41.7952C32.7116 40.6534 33.7535 39.326 34.7705 37.8517C36.5592 37.6928 38.249 37.4329 39.7815 37.0781C39.857 37.3831 39.924 37.6821 39.9818 37.9745ZM24.6141 45.0482C23.4749 45.451 22.5675 45.4626 22.0191 45.1459C20.852 44.4719 20.3668 41.8696 21.0286 38.3792C21.1072 37.9667 21.1973 37.5565 21.2987 37.149C22.8143 37.4848 24.4918 37.7263 26.2847 37.8719C27.3086 39.3144 28.3806 40.6404 29.461 41.8015C29.2314 42.0239 28.9963 42.2407 28.7561 42.4516C27.3205 43.7082 25.8819 44.5998 24.6141 45.0482ZM19.2771 34.9502C17.473 34.3326 15.983 33.53 14.9617 32.6542C14.044 31.8673 13.5807 31.0859 13.5807 30.4519C13.5807 29.1027 15.5893 27.3818 18.9394 26.2121C19.3459 26.0703 19.7714 25.9364 20.213 25.8108C20.6761 27.3189 21.2834 28.8959 22.0163 30.4904C21.2738 32.1086 20.6579 33.7107 20.1903 35.2366C19.8836 35.1487 19.5791 35.0532 19.2771 34.9502ZM21.0662 22.7547C20.3708 19.196 20.8326 16.5116 21.9948 15.8378C23.2325 15.1202 25.9697 16.1434 28.8547 18.7087C29.0428 18.8764 29.2279 19.0474 29.4098 19.2218C28.3348 20.3778 27.2726 21.6939 26.2579 23.1279C24.5177 23.2895 22.852 23.5488 21.3205 23.8964C21.2262 23.518 21.1414 23.1373 21.0662 22.7547ZM37.0263 26.7014C36.6646 26.0756 36.2894 25.4578 35.9011 24.8483C37.0817 24.9978 38.2128 25.1962 39.2749 25.4388C38.9561 26.4624 38.5586 27.5324 38.0908 28.6295C37.7488 27.9798 37.3939 27.3369 37.0263 26.7014ZM30.5178 20.3531C31.2468 21.144 31.977 22.0271 32.6951 22.9852C31.2383 22.9163 29.779 22.916 28.3221 22.9844C29.041 22.035 29.7773 21.1532 30.5178 20.3531ZM23.9675 26.7122C23.6045 27.3427 23.2562 27.9815 22.9229 28.6282C22.4628 27.535 22.0689 26.4601 21.7473 25.422C22.803 25.1855 23.9287 24.9922 25.1018 24.8454C24.7091 25.4586 24.3309 26.0812 23.9675 26.7122ZM25.1354 36.1711C23.9235 36.0356 22.7809 35.8522 21.7255 35.6221C22.0521 34.5655 22.4547 33.4677 22.9248 32.351C23.2594 32.9982 23.6091 33.6375 23.9737 34.2682C24.3486 34.9166 24.7368 35.5517 25.1354 36.1711ZM30.5614 40.6622C29.8122 39.8529 29.0649 38.9574 28.3352 37.9943C29.0437 38.0221 29.7659 38.0363 30.5 38.0363C31.2542 38.0363 31.9997 38.0193 32.7334 37.9866C32.013 38.9671 31.2855 39.8639 30.5614 40.6622ZM38.1057 32.294C38.6003 33.4229 39.0171 34.515 39.3481 35.5535C38.2753 35.7986 37.1171 35.9961 35.8967 36.1427C36.2877 35.5218 36.6664 34.8933 37.0325 34.2573C37.4047 33.6109 37.7625 32.9563 38.1057 32.294ZM35.6634 33.4665C35.1029 34.4415 34.5109 35.398 33.8884 36.3345C32.7607 36.4144 31.6305 36.4542 30.5 36.4536C29.3485 36.4536 28.2285 36.4177 27.1501 36.3476C26.5113 35.4133 25.908 34.4552 25.3415 33.4752C24.7777 32.5004 24.2513 31.5045 23.763 30.4897C24.25 29.4746 24.775 28.4783 25.3369 27.5028L25.3368 27.5029C25.8984 26.5271 26.4969 25.5731 27.1308 24.6428C28.2311 24.5594 29.3595 24.516 30.4999 24.516C31.6454 24.516 32.7754 24.5598 33.8754 24.6438C34.5029 25.5727 35.0976 26.5235 35.6582 27.4944C36.2219 28.4678 36.7539 29.4592 37.2532 30.4673C36.759 31.4856 36.2287 32.486 35.6634 33.4665ZM38.924 15.7907C40.1629 16.5062 40.6448 19.3919 39.8663 23.176C39.8166 23.4174 39.7608 23.6633 39.7001 23.9127C38.1649 23.5578 36.498 23.294 34.7528 23.13C33.7362 21.6801 32.6827 20.362 31.6252 19.2209C31.9023 18.9534 32.1861 18.6928 32.4762 18.4393C35.2078 16.0589 37.7608 15.1189 38.924 15.7907ZM30.5 27.1432C32.3247 27.1432 33.804 28.6246 33.804 30.4519C33.804 32.2792 32.3247 33.7606 30.5 33.7606C28.6753 33.7606 27.196 32.2792 27.196 30.4519C27.196 28.6246 28.6753 27.1432 30.5 27.1432Z" fill="#00D8FF"/>
</g>
</g>
<defs>
<filter id="filter0_d_163_69" x="1.3" y="2" width="58.4" height="58.7" filterUnits="userSpaceOnUse" color-interpolation-filters="sRGB">
<feFlood flood-opacity="0" result="BackgroundImageFix"/>
<feColorMatrix in="SourceAlpha" type="matrix" values="0 0 0 0 0 0 0 0 0 0 0 0 0 0 0 0 0 0 127 0" result="hardAlpha"/>
<feOffset dy="1"/>
<feGaussianBlur stdDeviation="0.35"/>
<feComposite in2="hardAlpha" operator="out"/>
<feColorMatrix type="matrix" values="0 0 0 0 0 0 0 0 0 0 0 0 0 0 0 0 0 0 0.25 0"/>
<feBlend mode="normal" in2="BackgroundImageFix" result="effect1_dropShadow_163_69"/>
<feBlend mode="normal" in="SourceGraphic" in2="effect1_dropShadow_163_69" result="shape"/>
</filter>
<clipPath id="clip0_163_69">
<rect width="37" height="33" fill="white" transform="translate(12 14)"/>
</clipPath>
</defs>
</svg>
