<svg width="61" height="81" viewBox="0 0 61 81" fill="none" xmlns="http://www.w3.org/2000/svg">
<circle cx="30.5" cy="73.5" r="3.5" fill="white"/>
<g filter="url(#filter0_d_172_11)">
<rect x="2" y="2" width="57" height="57" rx="12" fill="#0F3916"/>
<g clip-path="url(#clip0_172_11)">
<path d="M33.4566 48.1347C32.5384 49.2819 30.6767 48.6534 30.6546 47.1885L30.3311 25.7633H44.8511C47.4811 25.7633 48.9479 28.7771 47.3125 30.8207L33.4566 48.1347Z" fill="url(#paint0_linear_172_11)"/>
<path d="M33.4566 48.1347C32.5384 49.2819 30.6767 48.6534 30.6546 47.1885L30.3311 25.7633H44.8511C47.4811 25.7633 48.9479 28.7771 47.3125 30.8207L33.4566 48.1347Z" fill="url(#paint1_linear_172_11)" fill-opacity="0.2"/>
<path d="M27.5512 13.6598C28.4694 12.5124 30.3312 13.1411 30.3533 14.606L30.495 36.0311H16.1567C13.5266 36.0311 12.0598 33.0173 13.6952 30.9737L27.5512 13.6598Z" fill="#3ECF8E"/>
</g>
</g>
<defs>
<filter id="filter0_d_172_11" x="1.3" y="2" width="58.4" height="58.7" filterUnits="userSpaceOnUse" color-interpolation-filters="sRGB">
<feFlood flood-opacity="0" result="BackgroundImageFix"/>
<feColorMatrix in="SourceAlpha" type="matrix" values="0 0 0 0 0 0 0 0 0 0 0 0 0 0 0 0 0 0 127 0" result="hardAlpha"/>
<feOffset dy="1"/>
<feGaussianBlur stdDeviation="0.35"/>
<feComposite in2="hardAlpha" operator="out"/>
<feColorMatrix type="matrix" values="0 0 0 0 0 0 0 0 0 0 0 0 0 0 0 0 0 0 0.25 0"/>
<feBlend mode="normal" in2="BackgroundImageFix" result="effect1_dropShadow_172_11"/>
<feBlend mode="normal" in="SourceGraphic" in2="effect1_dropShadow_172_11" result="shape"/>
</filter>
<linearGradient id="paint0_linear_172_11" x1="30.3311" y1="30.5138" x2="43.2055" y2="35.956" gradientUnits="userSpaceOnUse">
<stop stop-color="#249361"/>
<stop offset="1" stop-color="#3ECF8E"/>
</linearGradient>
<linearGradient id="paint1_linear_172_11" x1="24.6097" y1="22.7416" x2="30.4231" y2="33.7715" gradientUnits="userSpaceOnUse">
<stop/>
<stop offset="1" stop-opacity="0"/>
</linearGradient>
<clipPath id="clip0_172_11">
<rect width="35" height="36" fill="white" transform="translate(13 13)"/>
</clipPath>
</defs>
</svg>
