<svg width="61" height="81" viewBox="0 0 61 81" fill="none" xmlns="http://www.w3.org/2000/svg">
<circle cx="30.5" cy="73.5" r="3.5" fill="white"/>
<g filter="url(#filter0_d_163_88)">
<rect x="2" y="2" width="57" height="57" rx="12" fill="white"/>
<g clip-path="url(#clip0_163_88)">
<path d="M30.5 20C25.5667 20 22.4833 22.4381 21.25 27.3143C23.1 24.8761 25.2583 23.9619 27.725 24.5714C29.1323 24.9191 30.1382 25.9284 31.2517 27.0454C33.0656 28.8653 35.1647 30.9714 39.75 30.9714C44.6833 30.9714 47.7667 28.5333 49 23.6571C47.15 26.0953 44.9917 27.0096 42.525 26.4C41.1177 26.0523 40.1118 25.043 38.9983 23.926C37.1844 22.1061 35.0853 20 30.5 20ZM21.25 30.9714C16.3167 30.9714 13.2333 33.4096 12 38.2857C13.85 35.8476 16.0083 34.9333 18.475 35.5429C19.8823 35.8906 20.8882 36.8999 22.0017 38.0169C23.8156 39.8367 25.9147 41.9429 30.5 41.9429C35.4333 41.9429 38.5167 39.5047 39.75 34.6286C37.9 37.0667 35.7417 37.981 33.275 37.3714C31.8677 37.0237 30.8618 36.0144 29.7483 34.8974C27.9344 33.0776 25.8353 30.9714 21.25 30.9714Z" fill="url(#paint0_linear_163_88)"/>
</g>
</g>
<defs>
<filter id="filter0_d_163_88" x="1.3" y="2" width="58.4" height="58.7" filterUnits="userSpaceOnUse" color-interpolation-filters="sRGB">
<feFlood flood-opacity="0" result="BackgroundImageFix"/>
<feColorMatrix in="SourceAlpha" type="matrix" values="0 0 0 0 0 0 0 0 0 0 0 0 0 0 0 0 0 0 127 0" result="hardAlpha"/>
<feOffset dy="1"/>
<feGaussianBlur stdDeviation="0.35"/>
<feComposite in2="hardAlpha" operator="out"/>
<feColorMatrix type="matrix" values="0 0 0 0 0 0 0 0 0 0 0 0 0 0 0 0 0 0 0.25 0"/>
<feBlend mode="normal" in2="BackgroundImageFix" result="effect1_dropShadow_163_88"/>
<feBlend mode="normal" in="SourceGraphic" in2="effect1_dropShadow_163_88" result="shape"/>
</filter>
<linearGradient id="paint0_linear_163_88" x1="-90.786" y1="722.171" x2="3086.08" y2="2575.36" gradientUnits="userSpaceOnUse">
<stop stop-color="#2298BD"/>
<stop offset="1" stop-color="#0ED7B5"/>
</linearGradient>
<clipPath id="clip0_163_88">
<rect width="37" height="22" fill="white" transform="translate(12 20)"/>
</clipPath>
</defs>
</svg>
