<svg width="35" height="22" viewBox="0 0 35 22" fill="none" xmlns="http://www.w3.org/2000/svg">
<path d="M17.5 0C12.8334 0 9.91662 2.33338 8.75 7C10.5 4.66662 12.5416 3.79162 14.875 4.375C16.2062 4.70777 17.1578 5.67369 18.2111 6.7427C19.9269 8.48436 21.9126 10.5 26.25 10.5C30.9166 10.5 33.8334 8.16662 35 3.5C33.25 5.83338 31.2084 6.70838 28.875 6.125C27.5438 5.79223 26.5922 4.82631 25.5389 3.7573C23.8231 2.01564 21.8374 0 17.5 0ZM8.75 10.5C4.08338 10.5 1.16662 12.8334 0 17.5C1.75 15.1666 3.79162 14.2916 6.125 14.875C7.45623 15.2078 8.40779 16.1737 9.46107 17.2427C11.1769 18.9844 13.1626 21 17.5 21C22.1666 21 25.0834 18.6666 26.25 14C24.5 16.3334 22.4584 17.2084 20.125 16.625C18.7938 16.2922 17.8422 15.3263 16.7889 14.2573C15.0731 12.5156 13.0874 10.5 8.75 10.5Z" fill="#D4D4D4"/>
</svg>
