<svg width="30" height="35" viewBox="0 0 30 35" fill="none" xmlns="http://www.w3.org/2000/svg">
<g clip-path="url(#clip0_150_23)">
<path d="M3.27852 28.0555H5.80105V29.3354H3.27864V32.2396C3.27356 32.448 3.30216 32.6558 3.36333 32.8551C3.40964 33.003 3.49198 33.1371 3.60293 33.2453C3.70986 33.3461 3.8399 33.419 3.98162 33.4577C4.12334 33.4956 4.26897 33.5162 4.41539 33.5192L4.47816 33.5194C4.61013 33.5194 4.74646 33.5194 4.88703 33.5009L4.97046 33.4905L5.13215 33.4722C5.18505 33.466 5.23715 33.4592 5.2889 33.4506L5.36464 33.4385L5.50693 33.4174C5.55295 33.4105 5.59759 33.4032 5.64177 33.3946L5.74711 33.3735L5.79611 33.3631L5.88677 33.343L5.92877 33.333L6.09815 34.5253C5.96183 34.6021 5.81744 34.6637 5.66759 34.7089C5.4979 34.7626 5.32491 34.8052 5.1497 34.8366C4.9661 34.871 4.77515 34.897 4.5757 34.9155C4.38158 34.9338 4.1867 34.9429 3.99172 34.9429C3.65151 34.9478 3.31263 34.8994 2.98739 34.7994C2.69756 34.7091 2.43309 34.5518 2.21544 34.3402C1.9912 34.1207 1.82204 33.8512 1.72177 33.5539C1.59707 33.1843 1.53785 32.7959 1.54677 32.406V29.3354H0V28.0555H1.54241V26.4011H3.27864L3.27852 28.0555ZM9.46147 31.4145V34.8123H7.70643V25.7196H10.7612C11.2231 25.7139 11.6835 25.7738 12.1286 25.8975C12.5086 26.0024 12.8647 26.1798 13.1774 26.4198C13.4651 26.649 13.693 26.9444 13.8419 27.2807C14.0052 27.6546 14.0855 28.0594 14.0771 28.4673C14.081 28.7636 14.0419 29.0589 13.961 29.344C13.8223 29.8397 13.5236 30.2756 13.1115 30.5838C12.9017 30.7426 12.6745 30.8769 12.4343 30.9841L14.3886 34.7362V34.818H12.5017L10.7915 31.4145H9.46147ZM9.46285 29.9883H10.7613C11.0054 29.9931 11.2483 29.9542 11.4787 29.8736C11.6716 29.8051 11.8446 29.6903 11.9825 29.5392C12.0899 29.4194 12.1723 29.2794 12.2249 29.1273C12.2763 28.9715 12.3043 28.8089 12.3078 28.645L12.3081 28.5835C12.3123 28.3653 12.2754 28.1482 12.199 27.9437C12.1305 27.7655 12.018 27.6075 11.872 27.4845C11.7314 27.3711 11.57 27.2863 11.3969 27.2348C11.2115 27.1808 11.0197 27.1515 10.8266 27.1476L9.46285 27.1473V29.9883ZM17.2483 34.8123H15.4964V25.7196H18.6057C19.0624 25.7132 19.5168 25.786 19.9486 25.9349C20.3258 26.065 20.6739 26.2678 20.9731 26.5317C21.2516 26.7904 21.4717 27.1054 21.6189 27.4558C21.7649 27.81 21.8423 28.1886 21.847 28.5716V28.6481C21.851 29.0368 21.7733 29.4221 21.6189 29.7788C21.4703 30.1193 21.2501 30.4237 20.9731 30.6712C20.6728 30.9353 20.3232 31.1372 19.9444 31.2653C19.5122 31.4125 19.0578 31.4843 18.6013 31.4776H17.2469L17.2483 34.8123ZM17.2483 30.0543H18.6028C18.8247 30.0588 19.0454 30.0203 19.2528 29.941C19.4266 29.8728 19.584 29.7686 19.7148 29.6354C19.8348 29.5068 19.9272 29.3549 19.986 29.1891C20.0469 29.0197 20.0778 28.841 20.0778 28.6611C20.0792 28.4599 20.0482 28.2598 19.986 28.0685C19.9293 27.891 19.837 27.727 19.7148 27.5863C19.5857 27.4464 19.4282 27.3359 19.2528 27.2621C19.0464 27.1787 18.8253 27.1381 18.6028 27.143H17.2483V30.0543ZM29.0728 33.2009C28.9122 33.5554 28.6818 33.8741 28.3956 34.1379C28.1012 34.4018 27.7574 34.6047 27.384 34.7348C26.9939 34.8685 26.5848 34.9387 26.1724 34.943L26.0841 34.9429C25.7326 34.947 25.3824 34.8987 25.0452 34.7994C24.7369 34.7074 24.446 34.5648 24.1843 34.3775C23.9476 34.2034 23.7382 33.995 23.563 33.7591C23.3787 33.5119 23.2245 33.2436 23.1039 32.9599C22.9782 32.65 22.8854 32.3278 22.827 31.9985C22.7607 31.6316 22.728 31.2594 22.7293 30.8865V29.6626C22.7286 29.312 22.7579 28.9621 22.8169 28.6166C22.8655 28.3362 22.9404 28.0611 23.0407 27.7948L23.0795 27.6954C23.2063 27.3624 23.3834 27.0507 23.6047 26.7713C23.8142 26.5071 24.0623 26.2759 24.3407 26.0856C24.5908 25.9241 24.8636 25.8008 25.15 25.7196C25.4293 25.64 25.7179 25.5972 26.0083 25.5922L26.0955 25.5919C26.5489 25.5841 27 25.656 27.4285 25.8042C27.7994 25.9316 28.1384 26.1376 28.4225 26.408C28.7065 26.6784 28.9288 27.007 29.0743 27.3711C29.2394 27.7798 29.3405 28.2115 29.3742 28.651H27.6265C27.6161 28.4077 27.5758 28.1667 27.506 27.9336C27.4497 27.7454 27.3549 27.571 27.2277 27.4214C27.0986 27.2854 26.9393 27.1816 26.7627 27.1186C26.5486 27.0452 26.3233 27.0102 26.097 27.0153C25.9675 27.0149 25.8385 27.0298 25.7125 27.0598C25.5977 27.0877 25.4877 27.1317 25.3853 27.1903C25.2098 27.2977 25.0623 27.4453 24.9549 27.6209C24.8293 27.822 24.7326 28.0398 24.6679 28.268C24.6112 28.4757 24.5719 28.6878 24.5503 28.9021C24.5241 29.1499 24.5116 29.399 24.513 29.6482V30.8837C24.5101 31.2084 24.5297 31.533 24.5717 31.855C24.6038 32.11 24.6654 32.3604 24.7553 32.6012C24.8094 32.7383 24.8797 32.8683 24.9649 32.9886C25.0414 33.0988 25.1355 33.1956 25.2433 33.2755C25.3567 33.3593 25.4846 33.4216 25.6206 33.4591C25.772 33.501 25.9285 33.5213 26.0856 33.5194C26.2949 33.5219 26.5035 33.4924 26.704 33.4319C26.8796 33.3778 27.0402 33.2835 27.1731 33.1565C27.3095 33.021 27.414 32.8567 27.4788 32.6757C27.5617 32.4489 27.6101 32.211 27.6222 31.9699H29.377C29.3517 32.3954 29.2487 32.8126 29.073 33.2009M21.3879 10.6035L25.8043 13.1533V18.2555L21.3879 20.8054L19.4273 19.6715L14.6598 22.4238L9.92095 19.6872L7.9878 20.8053L3.57138 18.2513V13.1531L7.9878 10.6034L12.4042 13.1532V18.2512L11.0681 19.0238L14.6598 21.0979L18.2801 19.008L16.9713 18.2512V13.1531L21.3879 10.6035ZM18.1192 14.482V17.5941L20.8139 19.1496V16.0375L18.1192 14.482ZM24.6564 14.4777L21.9618 16.0331V19.1496L24.6564 17.5899V14.4777ZM4.71926 14.4777V17.5899L7.4138 19.1452V16.0331L4.71926 14.4777ZM11.2563 14.4777L8.5618 16.033V19.1451L11.2565 17.5897L11.2563 14.4777ZM21.3879 11.9322L18.6932 13.4876L21.3879 15.0445L24.0824 13.4876L21.3879 11.9322ZM7.9878 11.928L5.29315 13.4876L7.9878 15.0402L10.6825 13.4876L7.9878 11.928ZM10.1845 4.01915V5.34341L6.09815 7.7039V11.6941L4.95026 12.3571V7.04074L10.1845 4.01915ZM14.601 0L19.0204 2.54972V3.9519L24.3694 7.04074V12.3239L23.2215 11.661V7.70367L19.0204 5.27766V7.64916L14.6038 10.1989L10.1874 7.64916V2.54972L14.601 0ZM11.3354 3.8741V6.98623L14.0272 8.54161V5.43085L11.3354 3.8741ZM17.8697 3.8741L15.178 5.43085V8.54023L17.8695 6.98623L17.8697 3.8741ZM14.6011 1.32575L11.9092 2.88113L14.601 4.43651L17.2956 2.88113L14.6011 1.32575Z" fill="#D4D4D4"/>
</g>
<defs>
<clipPath id="clip0_150_23">
<rect width="29.377" height="35" fill="white"/>
</clipPath>
</defs>
</svg>
