<svg width="61" height="81" viewBox="0 0 61 81" fill="none" xmlns="http://www.w3.org/2000/svg">
<circle cx="30.5" cy="73.5" r="3.5" fill="white"/>
<g filter="url(#filter0_d_163_105)">
<rect x="2" y="2" width="57" height="57" rx="12" fill="white"/>
<g clip-path="url(#clip0_163_105)">
<path d="M19.2364 41.7453H21.7266V43.0109H19.2366V45.883C19.2315 46.0891 19.2598 46.2947 19.3202 46.4918C19.3659 46.638 19.4472 46.7706 19.5567 46.8776C19.6622 46.9772 19.7906 47.0494 19.9305 47.0877C20.0704 47.1251 20.2142 47.1455 20.3587 47.1485L20.4207 47.1487C20.551 47.1487 20.6855 47.1487 20.8243 47.1303L20.9067 47.1201L21.0663 47.102C21.1185 47.0958 21.1699 47.0891 21.221 47.0806L21.2958 47.0687L21.4363 47.0478C21.4817 47.041 21.5257 47.0338 21.5694 47.0253L21.6734 47.0044L21.7217 46.9942L21.8112 46.9742L21.8527 46.9643L22.0199 48.1434C21.8853 48.2195 21.7428 48.2803 21.5948 48.325C21.4273 48.3781 21.2566 48.4203 21.0836 48.4513C20.9024 48.4853 20.7139 48.511 20.517 48.5294C20.3253 48.5474 20.133 48.5564 19.9405 48.5564C19.6046 48.5613 19.2701 48.5134 18.9491 48.4145C18.6629 48.3253 18.4019 48.1697 18.187 47.9604C17.9656 47.7433 17.7987 47.4768 17.6997 47.1828C17.5766 46.8173 17.5181 46.4332 17.5269 46.0476V43.0109H16V41.7453H17.5226V40.1091H19.2366L19.2364 41.7453ZM25.34 45.0671V48.4272H23.6075V39.4352H26.6231C27.0791 39.4295 27.5335 39.4887 27.9729 39.6111C28.348 39.7148 28.6996 39.8902 29.0083 40.1276C29.2923 40.3543 29.5173 40.6464 29.6642 40.979C29.8255 41.3487 29.9047 41.7491 29.8964 42.1524C29.9002 42.4455 29.8616 42.7375 29.7818 43.0195C29.6449 43.5096 29.3501 43.9407 28.9432 44.2456C28.7361 44.4026 28.5118 44.5354 28.2747 44.6414L30.2039 48.352V48.4329H28.3412L26.653 45.0671H25.34ZM25.3414 43.6567H26.6232C26.8641 43.6614 27.104 43.623 27.3314 43.5432C27.5218 43.4755 27.6925 43.3619 27.8287 43.2125C27.9347 43.094 28.0161 42.9556 28.068 42.8052C28.1187 42.6511 28.1464 42.4903 28.1499 42.3282L28.1501 42.2674C28.1543 42.0516 28.1178 41.8369 28.0425 41.6346C27.9748 41.4584 27.8637 41.3022 27.7196 41.1806C27.5809 41.0684 27.4215 40.9845 27.2506 40.9336C27.0676 40.8802 26.8783 40.8512 26.6876 40.8474L25.3414 40.847V43.6567ZM33.027 48.4272H31.2975V39.4352H34.3669C34.8177 39.4288 35.2663 39.5008 35.6926 39.6481C36.0649 39.7768 36.4085 39.9773 36.704 40.2383C36.9788 40.4941 37.1961 40.8056 37.3414 41.1522C37.4855 41.5024 37.5619 41.8768 37.5666 42.2556V42.3313C37.5706 42.7157 37.4939 43.0967 37.3414 43.4495C37.1947 43.7861 36.9773 44.0872 36.704 44.332C36.4075 44.5932 36.0623 44.7928 35.6884 44.9195C35.2617 45.0651 34.8132 45.1361 34.3626 45.1295H33.0255L33.027 48.4272ZM33.027 43.7219H34.364C34.5831 43.7263 34.801 43.6883 35.0056 43.6098C35.1772 43.5424 35.3326 43.4394 35.4617 43.3076C35.5803 43.1804 35.6714 43.0302 35.7295 42.8663C35.7896 42.6988 35.8201 42.5221 35.8201 42.3441C35.8215 42.1452 35.7909 41.9473 35.7295 41.7581C35.6735 41.5826 35.5824 41.4203 35.4617 41.2812C35.3343 41.1429 35.1788 41.0336 35.0056 40.9606C34.802 40.8781 34.5837 40.838 34.364 40.8428H33.027V43.7219ZM44.6997 46.8337C44.5411 47.1843 44.3137 47.4994 44.0311 47.7603C43.7405 48.0213 43.4011 48.222 43.0325 48.3506C42.6474 48.4828 42.2436 48.5523 41.8365 48.5565L41.7493 48.5564C41.4023 48.5605 41.0566 48.5127 40.7237 48.4145C40.4194 48.3235 40.1322 48.1825 39.8739 47.9973C39.6402 47.8251 39.4335 47.619 39.2606 47.3857C39.0786 47.1413 38.9264 46.876 38.8074 46.5954C38.6832 46.2889 38.5916 45.9702 38.534 45.6446C38.4686 45.2817 38.4363 44.9137 38.4376 44.5449V43.3345C38.4369 42.9879 38.4658 42.6418 38.524 42.3001C38.572 42.0228 38.646 41.7507 38.7449 41.4874L38.7832 41.3891C38.9085 41.0598 39.0833 40.7516 39.3017 40.4752C39.5086 40.2139 39.7535 39.9853 40.0283 39.7971C40.2752 39.6374 40.5444 39.5154 40.8272 39.4352C41.103 39.3564 41.3878 39.3141 41.6745 39.3092L41.7606 39.3088C42.2081 39.3011 42.6535 39.3722 43.0765 39.5188C43.4426 39.6448 43.7773 39.8485 44.0577 40.1159C44.3381 40.3834 44.5576 40.7083 44.7012 41.0684C44.8641 41.4726 44.9639 41.8995 44.9972 42.3341H43.2719C43.2617 42.0935 43.2218 41.8552 43.153 41.6246C43.0974 41.4386 43.0038 41.2661 42.8782 41.1181C42.7508 40.9836 42.5936 40.881 42.4192 40.8186C42.2079 40.7461 41.9854 40.7115 41.7621 40.7165C41.6343 40.7161 41.5068 40.7309 41.3825 40.7605C41.2692 40.7881 41.1606 40.8316 41.0595 40.8896C40.8862 40.9958 40.7406 41.1417 40.6346 41.3154C40.5106 41.5143 40.4152 41.7297 40.3513 41.9553C40.2954 42.1608 40.2565 42.3705 40.2352 42.5824C40.2093 42.8275 40.197 43.0739 40.1983 43.3203V44.5421C40.1955 44.8633 40.2149 45.1842 40.2563 45.5027C40.288 45.7549 40.3489 46.0025 40.4376 46.2406C40.4909 46.3762 40.5604 46.5048 40.6444 46.6237C40.72 46.7327 40.8129 46.8285 40.9193 46.9075C41.0312 46.9904 41.1575 47.0519 41.2917 47.089C41.4412 47.1304 41.5957 47.1505 41.7508 47.1487C41.9575 47.1512 42.1633 47.122 42.3612 47.0621C42.5346 47.0086 42.6932 46.9154 42.8243 46.7898C42.959 46.6558 43.0621 46.4933 43.1261 46.3143C43.208 46.0901 43.2557 45.8548 43.2677 45.6163H45C44.975 46.0371 44.8733 46.4497 44.6998 46.8337M37.1134 24.4862L41.4731 27.0079V32.0536L37.1134 34.5753L35.1779 33.4539L30.4717 36.1758L25.7936 33.4695L23.8853 34.5752L19.5255 32.0494V27.0076L23.8853 24.4861L28.245 27.0078V32.0493L26.9261 32.8134L30.4717 34.8645L34.0455 32.7978L32.7535 32.0493V27.0076L37.1134 24.4862ZM33.8867 28.3218V31.3995L36.5467 32.9378V29.8601L33.8867 28.3218ZM40.3399 28.3176L37.6799 29.8558V32.9378L40.3399 31.3953V28.3176ZM20.6587 28.3176V31.3953L23.3186 32.9335V29.8558L20.6587 28.3176ZM27.1119 28.3176L24.4519 29.8557V32.9334L27.112 31.3952L27.1119 28.3176ZM37.1134 25.8003L34.4533 27.3385L37.1134 28.8781L39.7733 27.3385L37.1134 25.8003ZM23.8853 25.7961L21.2252 27.3385L23.8853 28.8739L26.5454 27.3385L23.8853 25.7961ZM26.0538 17.9747V19.2843L22.0199 21.6187V25.5648L20.8867 26.2204V20.9629L26.0538 17.9747ZM30.4136 14L34.7763 16.5215V17.9082L40.0566 20.9629V26.1876L38.9235 25.532V21.6185L34.7763 19.2193V21.5646L30.4164 24.0861L26.0567 21.5646V16.5215L30.4136 14ZM27.1899 17.8313V20.909L29.8472 22.4471V19.3708L27.1899 17.8313ZM33.6404 17.8313L30.9831 19.3708V22.4458L33.6402 20.909L33.6404 17.8313ZM30.4137 15.3111L27.7563 16.8493L30.4136 18.3874L33.0736 16.8493L30.4137 15.3111Z" fill="black"/>
</g>
</g>
<defs>
<filter id="filter0_d_163_105" x="1.3" y="2" width="58.4" height="58.7" filterUnits="userSpaceOnUse" color-interpolation-filters="sRGB">
<feFlood flood-opacity="0" result="BackgroundImageFix"/>
<feColorMatrix in="SourceAlpha" type="matrix" values="0 0 0 0 0 0 0 0 0 0 0 0 0 0 0 0 0 0 127 0" result="hardAlpha"/>
<feOffset dy="1"/>
<feGaussianBlur stdDeviation="0.35"/>
<feComposite in2="hardAlpha" operator="out"/>
<feColorMatrix type="matrix" values="0 0 0 0 0 0 0 0 0 0 0 0 0 0 0 0 0 0 0.25 0"/>
<feBlend mode="normal" in2="BackgroundImageFix" result="effect1_dropShadow_163_105"/>
<feBlend mode="normal" in="SourceGraphic" in2="effect1_dropShadow_163_105" result="shape"/>
</filter>
<clipPath id="clip0_163_105">
<rect width="29" height="34.6129" fill="white" transform="translate(16 14)"/>
</clipPath>
</defs>
</svg>
