<svg width="61" height="81" viewBox="0 0 61 81" fill="none" xmlns="http://www.w3.org/2000/svg">
<circle cx="30.5" cy="73.5" r="3.5" fill="white"/>
<g filter="url(#filter0_d_163_80)">
<rect x="2" y="2" width="57" height="57" rx="12" fill="#3178C6"/>
<g clip-path="url(#clip0_163_80)">
<path d="M14.9688 12H47.0312C48.6709 12 50 13.3291 50 14.9688V47.0312C50 48.6709 48.6709 50 47.0312 50H14.9688C13.3291 50 12 48.6709 12 47.0312V14.9688C12 13.3291 13.3291 12 14.9688 12Z" fill="#3178C6"/>
<path d="M34.3425 41.758V45.8579C35.0093 46.1996 35.7979 46.4558 36.7083 46.6266C37.6187 46.7975 38.5782 46.8828 39.587 46.8828C40.5699 46.8828 41.5039 46.7889 42.3886 46.6009C43.2733 46.413 44.0491 46.1034 44.7158 45.6722C45.3826 45.2408 45.9104 44.677 46.2995 43.9809C46.6884 43.2848 46.8828 42.4243 46.8828 41.3994C46.8828 40.6563 46.7716 40.005 46.5494 39.4455C46.3296 38.8898 46.0029 38.3827 45.5877 37.953C45.169 37.5173 44.6666 37.1266 44.0812 36.7806C43.4956 36.4347 42.8352 36.108 42.1 35.8006C41.5615 35.5784 41.0786 35.3629 40.6511 35.1536C40.2238 34.9443 39.8604 34.7308 39.5613 34.5129C39.262 34.2952 39.0312 34.0645 38.8688 33.8211C38.7064 33.5776 38.6252 33.3023 38.6252 32.9947C38.6252 32.7128 38.6978 32.4588 38.8431 32.2325C38.9885 32.0061 39.1938 31.8118 39.4587 31.6496C39.7237 31.4872 40.0485 31.3613 40.4332 31.2715C40.8178 31.1818 41.2453 31.137 41.7154 31.137C42.0574 31.137 42.4186 31.1627 42.7989 31.2139C43.1793 31.2651 43.5618 31.3441 43.9466 31.451C44.3301 31.5573 44.7051 31.6922 45.0685 31.8546C45.4208 32.0107 45.7578 32.1994 46.075 32.4182V28.5874C45.451 28.3483 44.7692 28.1711 44.0298 28.0557C43.2905 27.9404 42.442 27.8828 41.4846 27.8828C40.5101 27.8828 39.587 27.9875 38.715 28.1968C37.8431 28.4059 37.0758 28.7326 36.4134 29.1767C35.7509 29.621 35.2274 30.1869 34.8426 30.8744C34.458 31.562 34.2656 32.384 34.2656 33.3407C34.2656 34.5621 34.6182 35.6041 35.3235 36.4668C36.0288 37.3294 37.0993 38.0597 38.5354 38.6576C39.0656 38.8735 39.5914 39.0999 40.1126 39.3367C40.5999 39.5588 41.0209 39.7893 41.3756 40.0284C41.7304 40.2675 42.0104 40.5281 42.2155 40.8099C42.4206 41.0918 42.5232 41.4121 42.5232 41.7709C42.5249 42.0291 42.4586 42.2832 42.3308 42.5076C42.2027 42.7338 42.0081 42.9304 41.7475 43.0969C41.4868 43.2635 41.1619 43.3936 40.773 43.4876C40.3841 43.5816 39.9288 43.6286 39.4074 43.6286C38.5184 43.6286 37.638 43.4728 36.7661 43.1609C35.894 42.8492 35.0862 42.3816 34.3425 41.758ZM27.509 31.5555H32.7812V28.1797H18.0859V31.5555H23.3325V46.5859H27.509V31.5555Z" fill="white"/>
</g>
</g>
<defs>
<filter id="filter0_d_163_80" x="1.3" y="2" width="58.4" height="58.7" filterUnits="userSpaceOnUse" color-interpolation-filters="sRGB">
<feFlood flood-opacity="0" result="BackgroundImageFix"/>
<feColorMatrix in="SourceAlpha" type="matrix" values="0 0 0 0 0 0 0 0 0 0 0 0 0 0 0 0 0 0 127 0" result="hardAlpha"/>
<feOffset dy="1"/>
<feGaussianBlur stdDeviation="0.35"/>
<feComposite in2="hardAlpha" operator="out"/>
<feColorMatrix type="matrix" values="0 0 0 0 0 0 0 0 0 0 0 0 0 0 0 0 0 0 0.25 0"/>
<feBlend mode="normal" in2="BackgroundImageFix" result="effect1_dropShadow_163_80"/>
<feBlend mode="normal" in="SourceGraphic" in2="effect1_dropShadow_163_80" result="shape"/>
</filter>
<clipPath id="clip0_163_80">
<rect width="38" height="38" fill="white" transform="translate(12 12)"/>
</clipPath>
</defs>
</svg>
