<svg width="35" height="35" viewBox="0 0 35 35" fill="none" xmlns="http://www.w3.org/2000/svg">
<g clip-path="url(#clip0_150_4)">
<path d="M2.73438 0H32.2656C33.7758 0 35 1.22418 35 2.73438V32.2656C35 33.7758 33.7758 35 32.2656 35H2.73438C1.22418 35 0 33.7758 0 32.2656V2.73438C0 1.22418 1.22418 0 2.73438 0Z" fill="#D4D4D4"/>
<path d="M20.5786 27.4087V31.1849C21.1928 31.4996 21.9192 31.7356 22.7577 31.8929C23.5962 32.0503 24.4799 32.1289 25.409 32.1289C26.3144 32.1289 27.1746 32.0424 27.9895 31.8693C28.8043 31.6962 29.5189 31.411 30.1329 31.0138C30.7471 30.6165 31.2333 30.0973 31.5916 29.4561C31.9498 28.815 32.1289 28.0224 32.1289 27.0784C32.1289 26.394 32.0265 25.794 31.8218 25.2787C31.6194 24.7669 31.3184 24.2999 30.936 23.904C30.5504 23.5028 30.0877 23.1429 29.5485 22.8242C29.0091 22.5057 28.4009 22.2048 27.7237 21.9216C27.2277 21.717 26.7829 21.5184 26.3892 21.3257C25.9956 21.1329 25.6609 20.9363 25.3854 20.7356C25.1098 20.535 24.8972 20.3226 24.7476 20.0983C24.598 19.8741 24.5232 19.6205 24.5232 19.3372C24.5232 19.0776 24.5901 18.8437 24.7239 18.6352C24.8578 18.4267 25.0469 18.2477 25.2909 18.0983C25.535 17.9487 25.8341 17.8328 26.1885 17.7501C26.5427 17.6675 26.9365 17.6262 27.3695 17.6262C27.6845 17.6262 28.0171 17.6498 28.3674 17.697C28.7178 17.7442 29.0701 17.8169 29.4245 17.9154C29.7777 18.0133 30.1231 18.1375 30.4578 18.2871C30.7823 18.4309 31.0927 18.6047 31.3849 18.8062V15.2779C30.8101 15.0577 30.1822 14.8944 29.5012 14.7882C28.8202 14.682 28.0387 14.6289 27.1569 14.6289C26.2593 14.6289 25.409 14.7253 24.606 14.9181C23.8029 15.1107 23.0962 15.4116 22.486 15.8207C21.8758 16.2299 21.3936 16.7511 21.0392 17.3843C20.685 18.0176 20.5078 18.7748 20.5078 19.6559C20.5078 20.7808 20.8325 21.7406 21.4822 22.5352C22.1318 23.3297 23.1178 24.0023 24.4405 24.553C24.9288 24.7519 25.4131 24.9604 25.8932 25.1785C26.342 25.3831 26.7297 25.5954 27.0565 25.8156C27.3833 26.0359 27.6411 26.2758 27.8301 26.5355C28.019 26.7951 28.1135 27.0901 28.1135 27.4206C28.115 27.6584 28.0539 27.8924 27.9363 28.0991C27.8183 28.3075 27.6391 28.4885 27.399 28.6419C27.1589 28.7953 26.8596 28.9152 26.5014 29.0017C26.1432 29.0883 25.7239 29.1316 25.2436 29.1316C24.4248 29.1316 23.6139 28.9881 22.8108 28.7008C22.0076 28.4137 21.2636 27.983 20.5786 27.4087ZM14.2846 18.0116H19.1406V14.9023H5.60547V18.0116H10.4378V31.8555H14.2846V18.0116Z" fill="white"/>
</g>
<defs>
<clipPath id="clip0_150_4">
<rect width="35" height="35" fill="white"/>
</clipPath>
</defs>
</svg>
