<svg width="170" height="142" viewBox="0 0 170 142" fill="none" xmlns="http://www.w3.org/2000/svg">
<g filter="url(#filter0_ddi_100_10)">
<g clip-path="url(#clip0_100_10)">
<rect width="134" height="134" rx="30" transform="matrix(0.999229 0.0392598 -0.269424 0.963022 36.1028 0)" fill="#222222"/>
<g filter="url(#filter1_f_100_10)">
<path d="M44.3216 13.9534C44.3216 13.9534 47.4655 5.31451 55.6146 5.63469C63.7637 5.95487 136.626 8.81765 146.933 9.22258C157.239 9.62752 153.136 18.2288 153.136 18.2288" stroke="url(#paint0_linear_100_10)" stroke-width="2"/>
</g>
<g filter="url(#filter2_f_100_10)">
<path d="M124.14 122.239C124.14 122.239 120.996 130.878 112.847 130.558C104.698 130.238 31.8349 127.375 21.5287 126.97C11.2225 126.565 15.325 117.964 15.325 117.964" stroke="url(#paint1_linear_100_10)" stroke-width="2"/>
</g>
<g filter="url(#filter3_f_100_10)">
<path d="M123.601 124.165C123.601 124.165 128.8 123.637 131.098 115.423C133.396 107.208 153.943 33.7646 156.85 23.3762C159.756 12.9878 154.287 14.4826 154.287 14.4826" stroke="url(#paint2_linear_100_10)" stroke-width="2"/>
</g>
<g filter="url(#filter4_f_100_10)">
<path d="M50.126 11.2607C50.126 11.2607 38.9371 11.5345 36.6995 19.5324C34.4619 27.5304 14.4553 99.0414 11.6254 109.156C8.79556 119.272 20.2478 118.057 20.2478 118.057" stroke="url(#paint3_linear_100_10)" stroke-width="2"/>
</g>
<mask id="mask0_100_10" style="mask-type:luminance" maskUnits="userSpaceOnUse" x="47" y="27" width="76" height="80">
<path d="M122.09 29.6658L68.7975 27.572L47.2436 104.614L100.536 106.708L122.09 29.6658Z" fill="white"/>
</mask>
<g mask="url(#mask0_100_10)">
<path d="M60.5665 105.137C67.9208 105.426 75.499 99.9083 77.4819 92.8205L81.0742 79.9802L67.7511 79.4568C60.3968 79.1678 52.8187 84.6857 50.8358 91.7735C48.8528 98.8614 53.2122 104.848 60.5665 105.137Z" fill="#0ACF83"/>
<path d="M58.0206 66.0926C60.0036 59.0048 67.5816 53.4869 74.9359 53.7758L88.2591 54.2993L81.0744 79.9799L67.7513 79.4565C60.397 79.1675 56.0376 73.1805 58.0206 66.0926Z" fill="#A259FF"/>
<path d="M65.2052 40.4122C67.1881 33.3244 74.7662 27.8065 82.1205 28.0954L95.4436 28.6189L88.259 54.2995L74.9359 53.776C67.5816 53.4871 63.2222 47.5001 65.2052 40.4122Z" fill="#F24E1E"/>
<path d="M95.4436 28.6189L108.767 29.1424C116.121 29.4313 120.48 35.4183 118.497 42.5061C116.514 49.5939 108.936 55.1119 101.582 54.823L88.259 54.2995L95.4436 28.6189Z" fill="#FF7262"/>
<path d="M111.313 68.1865C109.33 75.2743 101.752 80.7923 94.3975 80.5034C87.0432 80.2144 82.6838 74.2274 84.6667 67.1396C86.6497 60.0517 94.2278 54.5338 101.582 54.8228C108.936 55.1117 113.296 61.0987 111.313 68.1865Z" fill="#1ABCFE"/>
</g>
</g>
</g>
<defs>
<filter id="filter0_ddi_100_10" x="-4" y="0" width="180" height="142.306" filterUnits="userSpaceOnUse" color-interpolation-filters="sRGB">
<feFlood flood-opacity="0" result="BackgroundImageFix"/>
<feColorMatrix in="SourceAlpha" type="matrix" values="0 0 0 0 0 0 0 0 0 0 0 0 0 0 0 0 0 0 127 0" result="hardAlpha"/>
<feOffset dx="6" dy="7"/>
<feComposite in2="hardAlpha" operator="out"/>
<feColorMatrix type="matrix" values="0 0 0 0 0.133333 0 0 0 0 0.133333 0 0 0 0 0.133333 0 0 0 1 0"/>
<feBlend mode="normal" in2="BackgroundImageFix" result="effect1_dropShadow_100_10"/>
<feColorMatrix in="SourceAlpha" type="matrix" values="0 0 0 0 0 0 0 0 0 0 0 0 0 0 0 0 0 0 127 0" result="hardAlpha"/>
<feOffset dy="4"/>
<feGaussianBlur stdDeviation="2"/>
<feComposite in2="hardAlpha" operator="out"/>
<feColorMatrix type="matrix" values="0 0 0 0 0 0 0 0 0 0 0 0 0 0 0 0 0 0 0.25 0"/>
<feBlend mode="normal" in2="effect1_dropShadow_100_10" result="effect2_dropShadow_100_10"/>
<feBlend mode="normal" in="SourceGraphic" in2="effect2_dropShadow_100_10" result="shape"/>
<feColorMatrix in="SourceAlpha" type="matrix" values="0 0 0 0 0 0 0 0 0 0 0 0 0 0 0 0 0 0 127 0" result="hardAlpha"/>
<feOffset dx="-5" dy="4"/>
<feGaussianBlur stdDeviation="2"/>
<feComposite in2="hardAlpha" operator="arithmetic" k2="-1" k3="1"/>
<feColorMatrix type="matrix" values="0 0 0 0 0.609855 0 0 0 0 0.606312 0 0 0 0 0.62137 0 0 0 1 0"/>
<feBlend mode="normal" in2="shape" result="effect3_innerShadow_100_10"/>
</filter>
<filter id="filter1_f_100_10" x="41.3474" y="2.66211" width="115.63" height="17.7808" filterUnits="userSpaceOnUse" color-interpolation-filters="sRGB">
<feFlood flood-opacity="0" result="BackgroundImageFix"/>
<feBlend mode="normal" in="SourceGraphic" in2="BackgroundImageFix" result="shape"/>
<feGaussianBlur stdDeviation="1" result="effect1_foregroundBlur_100_10"/>
</filter>
<filter id="filter2_f_100_10" x="11.4841" y="115.75" width="115.63" height="17.7808" filterUnits="userSpaceOnUse" color-interpolation-filters="sRGB">
<feFlood flood-opacity="0" result="BackgroundImageFix"/>
<feBlend mode="normal" in="SourceGraphic" in2="BackgroundImageFix" result="shape"/>
<feGaussianBlur stdDeviation="1" result="effect1_foregroundBlur_100_10"/>
</filter>
<filter id="filter3_f_100_10" x="121.485" y="11.4442" width="39.2506" height="115.679" filterUnits="userSpaceOnUse" color-interpolation-filters="sRGB">
<feFlood flood-opacity="0" result="BackgroundImageFix"/>
<feBlend mode="normal" in="SourceGraphic" in2="BackgroundImageFix" result="shape"/>
<feGaussianBlur stdDeviation="1" result="effect1_foregroundBlur_100_10"/>
</filter>
<filter id="filter4_f_100_10" x="6.14087" y="6.29718" width="48.1868" height="116.769" filterUnits="userSpaceOnUse" color-interpolation-filters="sRGB">
<feFlood flood-opacity="0" result="BackgroundImageFix"/>
<feBlend mode="normal" in="SourceGraphic" in2="BackgroundImageFix" result="shape"/>
<feGaussianBlur stdDeviation="2" result="effect1_foregroundBlur_100_10"/>
</filter>
<linearGradient id="paint0_linear_100_10" x1="45.5341" y1="9.61985" x2="147.654" y2="38.19" gradientUnits="userSpaceOnUse">
<stop stop-color="white" stop-opacity="0.04"/>
<stop offset="0.509064" stop-color="white"/>
<stop offset="1" stop-color="#999999" stop-opacity="0.11"/>
</linearGradient>
<linearGradient id="paint1_linear_100_10" x1="122.927" y1="126.573" x2="20.8072" y2="98.0026" gradientUnits="userSpaceOnUse">
<stop stop-color="white" stop-opacity="0.04"/>
<stop offset="0.509064" stop-color="white"/>
<stop offset="1" stop-color="#999999" stop-opacity="0.11"/>
</linearGradient>
<linearGradient id="paint2_linear_100_10" x1="126.099" y1="124.263" x2="130.453" y2="13.4431" gradientUnits="userSpaceOnUse">
<stop stop-color="white" stop-opacity="0.61"/>
<stop offset="0.509064" stop-color="white"/>
<stop offset="1" stop-color="#999999" stop-opacity="0.11"/>
</linearGradient>
<linearGradient id="paint3_linear_100_10" x1="44.6303" y1="11.0447" x2="40.3907" y2="118.949" gradientUnits="userSpaceOnUse">
<stop stop-color="white" stop-opacity="0.04"/>
<stop offset="0.509064" stop-color="white"/>
<stop offset="1" stop-color="#999999" stop-opacity="0.11"/>
</linearGradient>
<clipPath id="clip0_100_10">
<rect width="134" height="134" rx="30" transform="matrix(0.999229 0.0392598 -0.269424 0.963022 36.1028 0)" fill="white"/>
</clipPath>
</defs>
</svg>
