<svg width="74" height="74" viewBox="0 0 74 74" fill="none" xmlns="http://www.w3.org/2000/svg">
<rect x="0.5" y="0.5" width="73" height="73" rx="12.5" fill="#FF7262"/>
<rect x="0.5" y="0.5" width="73" height="73" rx="12.5" stroke="#FFC2C2"/>
<path d="M15.78 33.6895C17.5788 27.9266 20.7353 26.5086 23.31 26.6539C25.1346 26.7568 25.8341 28.7787 25.7805 30.6054C25.5139 39.6959 34.3828 50.6532 40.813 55.9268C43.0359 57.7499 45.2886 55.8952 44.6657 53.0885L37.1023 19.0106C36.5755 16.637 38.2706 14.3463 40.6945 14.1561L45.6283 13.7691C48.1074 13.5747 50.1612 15.6654 49.9226 18.1407L46.364 55.0612C46.0942 57.8601 43.1064 59.5065 40.6536 58.1316C29.1781 51.6992 13.5353 40.8813 15.78 33.6895Z" fill="white"/>
</svg>
