<svg width="931" height="579" viewBox="0 0 931 579" fill="none" xmlns="http://www.w3.org/2000/svg">
<g filter="url(#filter0_f_6_26)">
<ellipse cx="465.556" cy="529.691" rx="417.57" ry="4.61404" fill="black"/>
</g>
<path d="M118.435 1H815.446C830.358 1 842.446 13.0883 842.446 28V507.235C842.446 508.892 841.103 510.235 839.446 510.235H94.4352C92.7783 510.235 91.4352 508.892 91.4352 507.235V28C91.4352 13.0883 103.523 1 118.435 1Z" fill="#1A202C" stroke="#4A5568" stroke-width="2"/>
<path d="M95.0492 26.614C95.0492 14.4638 104.899 4.61404 117.049 4.61404H816.832C828.982 4.61404 838.832 14.4638 838.832 26.614V491.856H95.0492V26.614Z" fill="black"/>
<path d="M437.853 494.325H439.584L442.594 501.674H442.705L445.715 494.325H447.446V503.779H446.089V496.938H446.001L443.213 503.765H442.086L439.298 496.933H439.21V503.779H437.853V494.325ZM451.473 503.936C451.023 503.936 450.617 503.853 450.254 503.687C449.891 503.518 449.603 503.273 449.391 502.953C449.181 502.633 449.077 502.24 449.077 501.776C449.077 501.376 449.154 501.046 449.308 500.788C449.461 500.529 449.669 500.325 449.931 500.174C450.192 500.023 450.485 499.909 450.808 499.832C451.131 499.755 451.46 499.697 451.796 499.657C452.221 499.607 452.565 499.567 452.83 499.537C453.095 499.503 453.287 499.449 453.407 499.375C453.527 499.301 453.587 499.181 453.587 499.015V498.983C453.587 498.58 453.473 498.267 453.245 498.046C453.021 497.824 452.685 497.713 452.239 497.713C451.774 497.713 451.408 497.816 451.14 498.022C450.876 498.226 450.692 498.452 450.591 498.701L449.294 498.406C449.448 497.975 449.672 497.627 449.968 497.362C450.266 497.095 450.609 496.901 450.997 496.781C451.385 496.658 451.793 496.596 452.221 496.596C452.504 496.596 452.804 496.63 453.121 496.698C453.441 496.762 453.739 496.882 454.016 497.058C454.296 497.233 454.526 497.484 454.704 497.81C454.883 498.133 454.972 498.553 454.972 499.07V503.779H453.624V502.81H453.569C453.479 502.988 453.345 503.164 453.167 503.336C452.988 503.508 452.759 503.651 452.479 503.765C452.199 503.879 451.864 503.936 451.473 503.936ZM451.773 502.828C452.154 502.828 452.481 502.753 452.751 502.602C453.025 502.451 453.233 502.254 453.375 502.011C453.519 501.765 453.592 501.502 453.592 501.222V500.308C453.542 500.357 453.447 500.403 453.305 500.446C453.167 500.486 453.008 500.522 452.83 500.552C452.651 500.58 452.478 500.606 452.308 500.631C452.139 500.652 451.997 500.671 451.884 500.686C451.616 500.72 451.371 500.777 451.15 500.857C450.931 500.937 450.756 501.052 450.623 501.203C450.494 501.351 450.429 501.548 450.429 501.794C450.429 502.136 450.556 502.394 450.808 502.57C451.06 502.742 451.382 502.828 451.773 502.828ZM459.797 503.922C459.111 503.922 458.52 503.767 458.025 503.456C457.532 503.142 457.154 502.71 456.889 502.159C456.624 501.608 456.492 500.977 456.492 500.266C456.492 499.546 456.627 498.91 456.898 498.359C457.169 497.805 457.551 497.373 458.043 497.062C458.536 496.751 459.116 496.596 459.783 496.596C460.322 496.596 460.802 496.696 461.224 496.896C461.645 497.093 461.986 497.37 462.244 497.727C462.506 498.084 462.661 498.501 462.71 498.978H461.367C461.293 498.646 461.124 498.359 460.859 498.119C460.598 497.879 460.247 497.759 459.807 497.759C459.422 497.759 459.085 497.861 458.796 498.064C458.509 498.264 458.286 498.55 458.126 498.923C457.966 499.292 457.886 499.729 457.886 500.234C457.886 500.751 457.965 501.197 458.122 501.573C458.279 501.948 458.5 502.239 458.786 502.445C459.076 502.651 459.416 502.754 459.807 502.754C460.068 502.754 460.305 502.707 460.518 502.611C460.733 502.513 460.913 502.373 461.058 502.191C461.205 502.01 461.308 501.791 461.367 501.536H462.71C462.661 501.994 462.512 502.403 462.263 502.764C462.013 503.124 461.679 503.407 461.261 503.613C460.845 503.819 460.357 503.922 459.797 503.922ZM464.297 503.779V494.325H465.678V497.838H465.761C465.841 497.69 465.956 497.519 466.107 497.325C466.258 497.131 466.467 496.962 466.735 496.818C467.003 496.67 467.356 496.596 467.797 496.596C468.369 496.596 468.88 496.741 469.329 497.03C469.779 497.319 470.131 497.736 470.386 498.281C470.645 498.826 470.774 499.481 470.774 500.248C470.774 501.014 470.646 501.671 470.391 502.219C470.136 502.764 469.785 503.184 469.338 503.479C468.892 503.772 468.383 503.918 467.81 503.918C467.38 503.918 467.027 503.845 466.753 503.701C466.482 503.556 466.27 503.387 466.116 503.193C465.962 502.999 465.844 502.827 465.761 502.676H465.645V503.779H464.297ZM465.65 500.234C465.65 500.732 465.722 501.169 465.867 501.545C466.012 501.92 466.221 502.214 466.495 502.427C466.769 502.636 467.104 502.74 467.501 502.74C467.913 502.74 468.258 502.631 468.535 502.413C468.812 502.191 469.021 501.891 469.163 501.513C469.308 501.134 469.38 500.708 469.38 500.234C469.38 499.766 469.309 499.346 469.168 498.973C469.029 498.601 468.82 498.307 468.54 498.092C468.263 497.876 467.917 497.769 467.501 497.769C467.101 497.769 466.762 497.872 466.485 498.078C466.212 498.284 466.004 498.572 465.862 498.941C465.721 499.31 465.65 499.741 465.65 500.234ZM475.311 503.922C474.646 503.922 474.066 503.77 473.571 503.465C473.075 503.161 472.69 502.734 472.416 502.187C472.143 501.639 472.006 500.999 472.006 500.266C472.006 499.531 472.143 498.887 472.416 498.336C472.69 497.785 473.075 497.358 473.571 497.053C474.066 496.748 474.646 496.596 475.311 496.596C475.976 496.596 476.556 496.748 477.051 497.053C477.547 497.358 477.932 497.785 478.206 498.336C478.479 498.887 478.616 499.531 478.616 500.266C478.616 500.999 478.479 501.639 478.206 502.187C477.932 502.734 477.547 503.161 477.051 503.465C476.556 503.77 475.976 503.922 475.311 503.922ZM475.316 502.764C475.747 502.764 476.104 502.65 476.387 502.422C476.67 502.194 476.879 501.891 477.014 501.513C477.153 501.134 477.222 500.717 477.222 500.261C477.222 499.809 477.153 499.394 477.014 499.015C476.879 498.633 476.67 498.327 476.387 498.096C476.104 497.865 475.747 497.75 475.316 497.75C474.882 497.75 474.522 497.865 474.235 498.096C473.952 498.327 473.741 498.633 473.603 499.015C473.467 499.394 473.4 499.809 473.4 500.261C473.4 500.717 473.467 501.134 473.603 501.513C473.741 501.891 473.952 502.194 474.235 502.422C474.522 502.65 474.882 502.764 475.316 502.764ZM483.144 503.922C482.479 503.922 481.899 503.77 481.404 503.465C480.908 503.161 480.523 502.734 480.249 502.187C479.976 501.639 479.839 500.999 479.839 500.266C479.839 499.531 479.976 498.887 480.249 498.336C480.523 497.785 480.908 497.358 481.404 497.053C481.899 496.748 482.479 496.596 483.144 496.596C483.809 496.596 484.389 496.748 484.884 497.053C485.38 497.358 485.765 497.785 486.039 498.336C486.312 498.887 486.449 499.531 486.449 500.266C486.449 500.999 486.312 501.639 486.039 502.187C485.765 502.734 485.38 503.161 484.884 503.465C484.389 503.77 483.809 503.922 483.144 503.922ZM483.149 502.764C483.58 502.764 483.937 502.65 484.22 502.422C484.503 502.194 484.712 501.891 484.848 501.513C484.986 501.134 485.055 500.717 485.055 500.261C485.055 499.809 484.986 499.394 484.848 499.015C484.712 498.633 484.503 498.327 484.22 498.096C483.937 497.865 483.58 497.75 483.149 497.75C482.715 497.75 482.355 497.865 482.068 498.096C481.785 498.327 481.574 498.633 481.436 499.015C481.301 499.394 481.233 499.809 481.233 500.261C481.233 500.717 481.301 501.134 481.436 501.513C481.574 501.891 481.785 502.194 482.068 502.422C482.355 502.65 482.715 502.764 483.149 502.764ZM489.26 501.374L489.25 499.689H489.491L492.316 496.688H493.969L490.746 500.104H490.529L489.26 501.374ZM487.99 503.779V494.325H489.37V503.779H487.99ZM492.468 503.779L489.929 500.409L490.88 499.444L494.162 503.779H492.468ZM458.697 515.779H457.183L460.586 506.325H462.234L465.636 515.779H464.122L461.449 508.042H461.375L458.697 515.779ZM458.951 512.077H463.863V513.277H458.951V512.077ZM466.954 515.779V508.688H468.334V515.779H466.954ZM467.651 507.594C467.411 507.594 467.205 507.514 467.033 507.354C466.863 507.191 466.779 506.997 466.779 506.772C466.779 506.545 466.863 506.351 467.033 506.191C467.205 506.028 467.411 505.946 467.651 505.946C467.891 505.946 468.096 506.028 468.265 506.191C468.437 506.351 468.524 506.545 468.524 506.772C468.524 506.997 468.437 507.191 468.265 507.354C468.096 507.514 467.891 507.594 467.651 507.594ZM470.191 515.779V508.688H471.526V509.815H471.599C471.729 509.433 471.956 509.133 472.283 508.915C472.612 508.693 472.984 508.582 473.4 508.582C473.486 508.582 473.588 508.585 473.704 508.591C473.825 508.598 473.918 508.605 473.986 508.614V509.935C473.931 509.919 473.832 509.902 473.691 509.884C473.549 509.862 473.407 509.852 473.266 509.852C472.94 509.852 472.649 509.921 472.393 510.059C472.141 510.195 471.941 510.384 471.793 510.627C471.646 510.867 471.572 511.141 471.572 511.449V515.779H470.191Z" fill="#A0AEC0"/>
<path d="M0 509.544C0 508.44 0.895431 507.544 2 507.544H928.19C929.295 507.544 930.19 508.44 930.19 509.544V513.081H0V509.544Z" fill="#A3ACB1"/>
<path d="M0 509.544C0 508.44 0.895431 507.544 2 507.544H928.19C929.295 507.544 930.19 508.44 930.19 509.544V513.081H0V509.544Z" fill="url(#paint0_linear_6_26)"/>
<path d="M0 513.081H930.19L914.429 516.26C888.396 521.51 861.906 524.155 835.349 524.155H93.7405C64.5556 524.155 35.4583 520.961 6.96832 514.629L0 513.081Z" fill="#647279"/>
<path d="M0 513.081H930.19L914.429 516.26C888.396 521.51 861.906 524.155 835.349 524.155H93.7405C64.5556 524.155 35.4583 520.961 6.96832 514.629L0 513.081Z" fill="url(#paint1_linear_6_26)"/>
<path fill-rule="evenodd" clip-rule="evenodd" d="M396.837 507.544C397.312 510.636 395.009 513.081 402.344 513.081H528.769C536.103 513.081 533.8 510.636 534.275 507.544H396.837Z" fill="#96A1A8"/>
<path fill-rule="evenodd" clip-rule="evenodd" d="M396.837 507.544C397.312 510.636 395.009 513.081 402.344 513.081H528.769C536.103 513.081 533.8 510.636 534.275 507.544H396.837Z" fill="url(#paint2_linear_6_26)"/>
<defs>
<filter id="filter0_f_6_26" x="3.98599" y="481.077" width="923.141" height="97.2281" filterUnits="userSpaceOnUse" color-interpolation-filters="sRGB">
<feFlood flood-opacity="0" result="BackgroundImageFix"/>
<feBlend mode="normal" in="SourceGraphic" in2="BackgroundImageFix" result="shape"/>
<feGaussianBlur stdDeviation="22" result="effect1_foregroundBlur_6_26"/>
</filter>
<linearGradient id="paint0_linear_6_26" x1="-1.79442e-10" y1="510.313" x2="930.19" y2="510.313" gradientUnits="userSpaceOnUse">
<stop stop-color="#0D1012"/>
<stop offset="0.0295345" stop-color="#CAD4DB"/>
<stop offset="0.0625" stop-color="#242729"/>
<stop offset="0.133609" stop-color="#A3ACB1"/>
<stop offset="0.865967" stop-color="#A3ACB1"/>
<stop offset="0.941937" stop-color="#242729"/>
<stop offset="0.971275" stop-color="#CAD4DB"/>
<stop offset="0.996436" stop-color="#0D1012"/>
</linearGradient>
<linearGradient id="paint1_linear_6_26" x1="465.095" y1="513.081" x2="465.095" y2="524.155" gradientUnits="userSpaceOnUse">
<stop stop-color="#7A7F83"/>
<stop offset="1" stop-color="#0B0B0E"/>
</linearGradient>
<linearGradient id="paint2_linear_6_26" x1="403.728" y1="510.906" x2="530.153" y2="510.906" gradientUnits="userSpaceOnUse">
<stop stop-color="#3C3C3C"/>
<stop offset="0.317518" stop-color="#3C3C3C" stop-opacity="0"/>
<stop offset="0.660584" stop-color="#3C3C3C" stop-opacity="0"/>
<stop offset="1" stop-color="#444444"/>
</linearGradient>
</defs>
</svg>
