<svg width="157" height="169" viewBox="0 0 157 169" fill="none" xmlns="http://www.w3.org/2000/svg">
<g filter="url(#filter0_ddi_98_4)">
<g clip-path="url(#clip0_98_4)">
<rect width="134" height="134" rx="30" transform="matrix(0.962455 0.27144 -0.197144 0.980375 27.4173 0)" fill="#0E0628"/>
<g filter="url(#filter1_f_98_4)">
<path d="M36.2067 16.9826C36.2067 16.9826 38.6736 8.35451 46.5228 10.5682C54.372 12.7819 124.553 32.5751 134.48 35.3748C144.407 38.1745 141.017 46.5421 141.017 46.5421" stroke="url(#paint0_linear_98_4)" stroke-width="2"/>
</g>
<g filter="url(#filter2_f_98_4)">
<path d="M119.823 152.45C119.823 152.45 117.356 161.078 109.507 158.864C101.658 156.651 31.4763 136.857 21.5493 134.058C11.6224 131.258 15.0127 122.89 15.0127 122.89" stroke="url(#paint1_linear_98_4)" stroke-width="2"/>
</g>
<g filter="url(#filter3_f_98_4)">
<path d="M41.6104 15.3986C41.6104 15.3986 30.879 13.1312 29.2417 21.2733C27.6044 29.4153 12.9651 102.215 10.8944 112.512C8.82369 122.81 19.7478 124.119 19.7478 124.119" stroke="url(#paint2_linear_98_4)" stroke-width="2"/>
</g>
<path d="M108.687 78.1185C107.848 77.5505 106.998 77.0034 106.136 76.4777C106.418 75.8832 106.686 75.293 106.937 74.7094C111.045 65.125 111.343 56.5543 107.276 52.558C103.378 48.7267 95.6099 49.3844 87.0161 53.7713C86.1689 54.2048 85.334 54.6611 84.5121 55.1398C84.1424 54.5631 83.7627 53.9927 83.3734 53.429C77.1108 44.3807 70.0285 39.3141 64.8813 40.7202C59.9454 42.0684 57.09 49.3991 57.0105 59.558C57.0035 60.5644 57.0213 61.5726 57.0639 62.5816C55.9158 62.5885 54.8018 62.6262 53.7283 62.6981C44.1231 63.3418 37.3968 66.6986 36.3597 71.8558C35.2886 77.1823 40.362 84.2586 49.0503 90.1322C49.7549 90.6073 50.4696 91.065 51.1939 91.5049C50.7398 92.4506 50.3123 93.4111 49.912 94.3853C46.2368 103.353 46.1083 111.261 49.9927 115.079C54.0047 119.023 62.1866 118.44 70.9433 113.944C71.6537 113.578 72.3538 113.193 73.043 112.79C73.6402 113.727 74.2615 114.65 74.9062 115.555C80.8407 123.871 87.4395 128.414 92.3573 127.071C97.4368 125.683 100.537 118.024 100.596 107.658C100.6 106.846 100.585 106.032 100.55 105.218C101.119 105.208 101.678 105.19 102.226 105.162C112.592 104.636 119.97 101.14 121.056 95.7426C122.097 90.5666 117.192 83.8939 108.687 78.1185ZM101.789 101.356C101.294 101.381 100.789 101.397 100.275 101.407C99.8957 97.6608 99.1855 93.5913 98.176 89.3086C100.608 86.092 102.726 82.8694 104.455 79.7421C105.271 80.2409 106.058 80.7463 106.811 81.2579C114.098 86.2066 118.065 91.6029 117.438 94.7222C116.77 98.0446 110.739 100.902 101.789 101.356ZM96.9035 107.37C96.8775 111.953 96.2083 115.916 95.0294 118.828C93.9703 121.445 92.586 122.999 91.1832 123.382C88.199 124.197 82.9008 120.549 77.8258 113.437C77.2261 112.595 76.6481 111.738 76.0925 110.866C79.0118 108.891 82.016 106.484 85.0315 103.721C89.2001 104.507 93.1896 104.995 96.863 105.162C96.8935 105.918 96.9075 106.655 96.9035 107.37ZM58.4259 113.857C55.6303 114.056 53.5479 113.497 52.4401 112.408C50.0829 110.091 50.1861 103.742 53.3292 96.0728C53.7016 95.1668 54.0992 94.2734 54.5213 93.3937C57.8339 95.1511 61.5614 96.7941 65.5976 98.2893C67.2684 102.297 69.1038 106.064 71.0352 109.455C70.4059 109.823 69.7668 110.174 69.1185 110.508C65.246 112.496 61.5373 113.636 58.4259 113.857ZM50.9194 86.9882C47.0776 84.3908 44.0413 81.5673 42.1121 78.8764C40.3783 76.4585 39.6824 74.3469 39.9781 72.8763C40.6075 69.7466 46.008 67.0514 54.2222 66.5011C55.219 66.4346 56.2554 66.3987 57.3248 66.3924C57.6813 70.1897 58.336 74.2396 59.2699 78.4115C56.8155 81.6857 54.6582 85.0043 52.8761 88.2421C52.2151 87.8401 51.5627 87.4219 50.9194 86.9882ZM60.7033 59.8541C60.7715 51.1505 63.0807 45.2218 66.0553 44.4092C69.2234 43.5437 75.0117 47.6841 80.4191 55.4972C80.7715 56.0075 81.1154 56.5238 81.4505 57.0457C78.4505 59.0332 75.4052 61.4003 72.4134 64.0717C68.3547 63.3229 64.4207 62.8492 60.753 62.6666C60.7135 61.7282 60.697 60.7901 60.7033 59.8541ZM95.3964 79.3126C94.8603 77.6277 94.2897 75.9524 93.6852 74.2878C96.3178 75.3968 98.8144 76.5873 101.133 77.8357C99.9253 80.0042 98.5164 82.2297 96.9337 84.4725C96.454 82.7445 95.9415 81.0242 95.3964 79.3126ZM83.4591 60.3851C84.7589 62.6906 86.0184 65.2103 87.2154 67.8965C83.9127 66.7961 80.5723 65.8533 77.2055 65.0713C79.2939 63.3333 81.3909 61.7631 83.4591 60.3851ZM65.4986 70.9072C64.3736 72.1352 63.2784 73.3923 62.2139 74.6773C61.6704 71.8444 61.2703 69.0966 61.0184 66.4811C63.5452 66.6141 66.2123 66.8923 68.9659 67.3092C67.7811 68.4782 66.625 69.6781 65.4986 70.9072ZM63.7601 93.6021C61.0491 92.5055 58.519 91.3424 56.2105 90.1273C57.4511 87.8873 58.8846 85.6006 60.4817 83.3139C60.9456 85.0312 61.448 86.7398 61.9883 88.4382C62.5441 90.1844 63.1365 91.9082 63.7601 93.6021ZM74.0857 107.523C72.7481 105.162 71.4554 102.602 70.2342 99.8971C71.843 100.419 73.4896 100.918 75.17 101.392C76.8963 101.879 78.6107 102.321 80.3057 102.719C78.1991 104.528 76.1156 106.138 74.0857 107.523ZM95.2585 92.9822C95.864 95.9203 96.3088 98.7225 96.582 101.345C94.0121 101.221 91.2687 100.931 88.4066 100.484C89.5914 99.296 90.7515 98.0824 91.8862 96.8437C93.0397 95.5846 94.1641 94.2971 95.2585 92.9822ZM89.121 94.1253C87.3832 96.0251 85.582 97.8616 83.7201 99.632C81.1014 99.0895 78.4958 98.452 75.9082 97.7208C73.2724 96.9774 70.7254 96.1711 68.2893 95.3123C67.2629 92.7327 66.3289 90.1207 65.4894 87.4818C64.6535 84.8567 63.9129 82.2067 63.2685 79.5375C64.8569 77.4974 66.5234 75.5252 68.2646 73.6251L68.2642 73.6253C70.005 71.7244 71.82 69.8977 73.7051 68.1491C76.2627 68.666 78.8659 69.2938 81.4762 70.03C84.0985 70.7695 86.6646 71.6007 89.1435 72.5056C90.1467 75.0655 91.0644 77.6548 91.8948 80.2689C92.7312 82.8907 93.4864 85.534 94.1593 88.1946C92.5529 90.2377 90.8724 92.2158 89.121 94.1253ZM104.83 55.2291C107.332 57.6888 107.089 64.6934 103.542 72.9686C103.316 73.4965 103.073 74.0309 102.818 74.5702C99.4692 72.7559 95.7766 71.0677 91.8582 69.5606C90.2073 65.5413 88.4106 61.8036 86.5221 58.4739C87.2813 58.0323 88.0524 57.611 88.8347 57.2104C96.198 53.4521 102.48 52.92 104.83 55.2291ZM80.2511 76.1243C84.428 77.3023 87.1232 81.6936 86.2708 85.9322C85.4185 90.1709 81.3413 92.6521 77.1644 91.4741C72.9875 90.2961 70.2923 85.9048 71.1446 81.6662C71.997 77.4275 76.0742 74.9463 80.2511 76.1243Z" fill="url(#paint3_linear_98_4)"/>
</g>
<rect x="0.382656" y="0.625907" width="133" height="133" rx="29.5" transform="matrix(0.962455 0.27144 -0.197144 0.980375 27.5551 -0.0915845)" stroke="#0E0628"/>
</g>
<defs>
<filter id="filter0_ddi_98_4" x="-5" y="0" width="165.386" height="175.743" filterUnits="userSpaceOnUse" color-interpolation-filters="sRGB">
<feFlood flood-opacity="0" result="BackgroundImageFix"/>
<feColorMatrix in="SourceAlpha" type="matrix" values="0 0 0 0 0 0 0 0 0 0 0 0 0 0 0 0 0 0 127 0" result="hardAlpha"/>
<feOffset dx="-6" dy="3"/>
<feComposite in2="hardAlpha" operator="out"/>
<feColorMatrix type="matrix" values="0 0 0 0 0.054902 0 0 0 0 0.0235294 0 0 0 0 0.156863 0 0 0 1 0"/>
<feBlend mode="normal" in2="BackgroundImageFix" result="effect1_dropShadow_98_4"/>
<feColorMatrix in="SourceAlpha" type="matrix" values="0 0 0 0 0 0 0 0 0 0 0 0 0 0 0 0 0 0 127 0" result="hardAlpha"/>
<feOffset dy="4"/>
<feGaussianBlur stdDeviation="2"/>
<feComposite in2="hardAlpha" operator="out"/>
<feColorMatrix type="matrix" values="0 0 0 0 0 0 0 0 0 0 0 0 0 0 0 0 0 0 0.25 0"/>
<feBlend mode="normal" in2="effect1_dropShadow_98_4" result="effect2_dropShadow_98_4"/>
<feBlend mode="normal" in="SourceGraphic" in2="effect2_dropShadow_98_4" result="shape"/>
<feColorMatrix in="SourceAlpha" type="matrix" values="0 0 0 0 0 0 0 0 0 0 0 0 0 0 0 0 0 0 127 0" result="hardAlpha"/>
<feOffset dx="-5" dy="4"/>
<feGaussianBlur stdDeviation="2"/>
<feComposite in2="hardAlpha" operator="arithmetic" k2="-1" k3="1"/>
<feColorMatrix type="matrix" values="0 0 0 0 0.315316 0 0 0 0 0.182648 0 0 0 0 0.746484 0 0 0 0.25 0"/>
<feBlend mode="normal" in2="shape" result="effect3_innerShadow_98_4"/>
</filter>
<filter id="filter1_f_98_4" x="33.2633" y="7.18677" width="111.294" height="41.8009" filterUnits="userSpaceOnUse" color-interpolation-filters="sRGB">
<feFlood flood-opacity="0" result="BackgroundImageFix"/>
<feBlend mode="normal" in="SourceGraphic" in2="BackgroundImageFix" result="shape"/>
<feGaussianBlur stdDeviation="1" result="effect1_foregroundBlur_98_4"/>
</filter>
<filter id="filter2_f_98_4" x="11.4719" y="120.445" width="111.294" height="41.8009" filterUnits="userSpaceOnUse" color-interpolation-filters="sRGB">
<feFlood flood-opacity="0" result="BackgroundImageFix"/>
<feBlend mode="normal" in="SourceGraphic" in2="BackgroundImageFix" result="shape"/>
<feGaussianBlur stdDeviation="1" result="effect1_foregroundBlur_98_4"/>
</filter>
<filter id="filter3_f_98_4" x="5.65088" y="10.0912" width="40.0915" height="119.038" filterUnits="userSpaceOnUse" color-interpolation-filters="sRGB">
<feFlood flood-opacity="0" result="BackgroundImageFix"/>
<feBlend mode="normal" in="SourceGraphic" in2="BackgroundImageFix" result="shape"/>
<feGaussianBlur stdDeviation="2" result="effect1_foregroundBlur_98_4"/>
</filter>
<linearGradient id="paint0_linear_98_4" x1="37.0939" y1="12.5709" x2="143.643" y2="33.9968" gradientUnits="userSpaceOnUse">
<stop stop-color="white" stop-opacity="0.04"/>
<stop offset="0.509064" stop-color="white"/>
<stop offset="1" stop-color="#999999" stop-opacity="0.11"/>
</linearGradient>
<linearGradient id="paint1_linear_98_4" x1="118.936" y1="156.862" x2="12.3869" y2="135.436" gradientUnits="userSpaceOnUse">
<stop stop-color="white" stop-opacity="0.04"/>
<stop offset="0.509064" stop-color="white"/>
<stop offset="1" stop-color="#999999" stop-opacity="0.11"/>
</linearGradient>
<linearGradient id="paint2_linear_98_4" x1="36.3169" y1="13.9057" x2="6.27505" y2="120.426" gradientUnits="userSpaceOnUse">
<stop stop-color="white" stop-opacity="0.04"/>
<stop offset="0.509064" stop-color="white"/>
<stop offset="1" stop-color="#999999" stop-opacity="0.11"/>
</linearGradient>
<linearGradient id="paint3_linear_98_4" x1="67.1327" y1="40.2082" x2="87.3734" y2="128.686" gradientUnits="userSpaceOnUse">
<stop stop-color="#00D8FF"/>
<stop offset="1" stop-color="#00829A"/>
</linearGradient>
<clipPath id="clip0_98_4">
<rect width="134" height="134" rx="30" transform="matrix(0.962455 0.27144 -0.197144 0.980375 27.4173 0)" fill="white"/>
</clipPath>
</defs>
</svg>
