<svg width="93" height="58" viewBox="0 0 93 58" fill="none" xmlns="http://www.w3.org/2000/svg">
<path d="M52.664 45.416C51.064 45.416 49.6453 45.0747 48.408 44.392C47.1707 43.7093 46.2 42.7173 45.496 41.416C44.8133 40.1147 44.472 38.5147 44.472 36.616C44.472 34.6747 44.8347 33.064 45.56 31.784C46.2853 30.504 47.256 29.544 48.472 28.904C49.7093 28.264 51.096 27.944 52.632 27.944C54.2107 27.944 55.6187 28.2747 56.856 28.936C58.0933 29.5973 59.064 30.5787 59.768 31.88C60.4933 33.1813 60.856 34.8027 60.856 36.744C60.856 38.664 60.4933 40.2747 59.768 41.576C59.064 42.856 58.0933 43.816 56.856 44.456C55.6187 45.096 54.2213 45.416 52.664 45.416ZM52.792 42.664C53.752 42.664 54.5733 42.44 55.256 41.992C55.9387 41.544 56.4613 40.8827 56.824 40.008C57.1867 39.1333 57.368 38.088 57.368 36.872C57.368 35.6133 57.176 34.536 56.792 33.64C56.408 32.7227 55.8533 32.0187 55.128 31.528C54.424 31.0373 53.56 30.792 52.536 30.792C51.6187 30.792 50.808 31.016 50.104 31.464C49.4213 31.8907 48.8987 32.5413 48.536 33.416C48.1733 34.2693 47.992 35.3147 47.992 36.552C47.992 38.4933 48.4187 39.9973 49.272 41.064C50.1253 42.1307 51.2987 42.664 52.792 42.664ZM65.0637 45.416C64.1464 45.416 63.3251 45.2453 62.5997 44.904C61.8744 44.5413 61.2984 44.008 60.8717 43.304C60.4664 42.6 60.2637 41.7253 60.2637 40.68C60.2637 39.848 60.4131 39.1333 60.7117 38.536C61.0317 37.9173 61.5011 37.4053 62.1197 37C62.7597 36.5733 63.5704 36.232 64.5517 35.976C65.5331 35.6987 66.6957 35.464 68.0398 35.272C68.7864 35.1653 69.3944 35.0587 69.8638 34.952C70.3544 34.8453 70.7064 34.6747 70.9198 34.44C71.1544 34.2053 71.2718 33.8533 71.2718 33.384C71.2718 32.6587 71.0158 32.04 70.5037 31.528C70.0131 30.9947 69.2131 30.728 68.1038 30.728C67.4851 30.728 66.8664 30.8347 66.2477 31.048C65.6504 31.2613 65.1277 31.6133 64.6797 32.104C64.2531 32.5733 63.9651 33.2133 63.8157 34.024L60.6797 33.032C60.8717 32.2213 61.1811 31.5067 61.6077 30.888C62.0344 30.248 62.5677 29.7147 63.2077 29.288C63.8477 28.84 64.5837 28.5093 65.4158 28.296C66.2691 28.0613 67.1971 27.944 68.1997 27.944C69.6718 27.944 70.8877 28.1893 71.8477 28.68C72.8078 29.1707 73.5224 29.928 73.9918 30.952C74.4824 31.9547 74.7277 33.2453 74.7277 34.824V38.216C74.7277 38.92 74.7384 39.6667 74.7598 40.456C74.8024 41.224 74.8451 42.0027 74.8878 42.792C74.9517 43.56 75.0264 44.296 75.1117 45H71.9438C71.8797 44.36 71.8157 43.6987 71.7517 43.016C71.7091 42.3333 71.6664 41.64 71.6237 40.936H71.1438C70.8451 41.7467 70.4184 42.4933 69.8638 43.176C69.3304 43.8587 68.6584 44.4027 67.8477 44.808C67.0584 45.2133 66.1304 45.416 65.0637 45.416ZM66.2797 42.728C66.7277 42.728 67.1757 42.6533 67.6237 42.504C68.0931 42.3547 68.5518 42.1307 68.9998 41.832C69.4691 41.512 69.8957 41.1067 70.2797 40.616C70.6851 40.1253 71.0371 39.5387 71.3358 38.856L71.3038 35.848L72.1357 36.008C71.7731 36.328 71.3144 36.5733 70.7598 36.744C70.2264 36.9147 69.6398 37.0533 68.9998 37.16C68.3598 37.2453 67.7198 37.352 67.0798 37.48C66.4611 37.5867 65.8851 37.7467 65.3517 37.96C64.8397 38.152 64.4237 38.4293 64.1037 38.792C63.8051 39.1547 63.6557 39.656 63.6557 40.296C63.6557 41.0853 63.9011 41.6933 64.3917 42.12C64.8824 42.5253 65.5117 42.728 66.2797 42.728ZM83.124 45.416C81.524 45.416 80.1053 45.0747 78.868 44.392C77.6307 43.7093 76.66 42.7173 75.956 41.416C75.2733 40.1147 74.932 38.5147 74.932 36.616C74.932 34.6747 75.2947 33.064 76.02 31.784C76.7453 30.504 77.716 29.544 78.932 28.904C80.1693 28.264 81.556 27.944 83.092 27.944C84.6707 27.944 86.0787 28.2747 87.316 28.936C88.5533 29.5973 89.524 30.5787 90.228 31.88C90.9533 33.1813 91.316 34.8027 91.316 36.744C91.316 38.664 90.9533 40.2747 90.228 41.576C89.524 42.856 88.5533 43.816 87.316 44.456C86.0787 45.096 84.6813 45.416 83.124 45.416ZM83.252 42.664C84.212 42.664 85.0333 42.44 85.716 41.992C86.3987 41.544 86.9213 40.8827 87.284 40.008C87.6467 39.1333 87.828 38.088 87.828 36.872C87.828 35.6133 87.636 34.536 87.252 33.64C86.868 32.7227 86.3133 32.0187 85.588 31.528C84.884 31.0373 84.02 30.792 82.996 30.792C82.0787 30.792 81.268 31.016 80.564 31.464C79.8813 31.8907 79.3587 32.5413 78.996 33.416C78.6333 34.2693 78.452 35.3147 78.452 36.552C78.452 38.4933 78.8787 39.9973 79.732 41.064C80.5853 42.1307 81.7587 42.664 83.252 42.664Z" fill="#FF7262"/>
<path d="M6.45802 38.9618C4.68361 33.1913 6.48559 30.2372 8.69149 28.9013C10.2547 27.9547 11.9747 29.2269 12.9633 30.764C17.8828 38.413 31.3929 42.4371 39.6784 43.1517C42.5427 43.3987 43.3521 40.5953 41.2516 38.6324L15.7468 14.7992C13.9704 13.1392 14.0735 10.2914 15.9654 8.76419L19.8162 5.65563C21.7512 4.09368 24.6273 4.65709 25.8299 6.83366L43.7677 39.2994C45.1275 41.7606 43.5938 44.8078 40.7934 45.0604C27.6913 46.2424 8.67237 46.163 6.45802 38.9618Z" fill="#FF7262"/>
</svg>
