<svg width="163" height="157" viewBox="0 0 163 157" fill="none" xmlns="http://www.w3.org/2000/svg">
<g filter="url(#filter0_ddi_98_4)">
<g clip-path="url(#clip0_98_4)">
<rect width="134" height="134" rx="30" transform="matrix(0.985556 0.16935 -0.221378 0.975188 30 0)" fill="#050547"/>
<g filter="url(#filter1_f_98_4)">
<path d="M38.7274 15.6848C38.7274 15.6848 41.429 7.03001 49.4666 8.41112C57.5042 9.79223 129.37 22.141 139.535 23.8877C149.7 25.6344 146.053 34.1268 146.053 34.1268" stroke="url(#paint0_linear_98_4)" stroke-width="2"/>
</g>
<g filter="url(#filter2_f_98_4)">
<path d="M122.244 139.464C122.244 139.464 119.543 148.119 111.505 146.738C103.467 145.357 31.6016 133.008 21.4363 131.261C11.2711 129.515 14.9183 121.022 14.9183 121.022" stroke="url(#paint1_linear_98_4)" stroke-width="2"/>
</g>
<g filter="url(#filter3_f_98_4)">
<path d="M121.801 141.415C121.801 141.415 126.896 141.527 128.784 133.21C130.672 124.892 147.555 50.5201 149.943 40.0004C152.332 29.4807 147.015 30.3465 147.015 30.3465" stroke="url(#paint2_linear_98_4)" stroke-width="2"/>
</g>
<g filter="url(#filter4_f_98_4)">
<path d="M44.3193 13.606C44.3193 13.606 33.3159 12.4578 31.4774 20.5568C29.6388 28.6558 13.1999 101.07 10.8747 111.313C8.54947 121.556 19.7691 121.751 19.7691 121.751" stroke="url(#paint3_linear_98_4)" stroke-width="2"/>
</g>
<g clip-path="url(#clip1_98_4)">
<path d="M125.603 51.5996L110.63 40.7161C109.784 40.1015 108.751 39.7693 107.674 39.7655C106.597 39.7617 105.529 40.0864 104.618 40.6948L38.4002 80.8354C36.6192 81.9153 36.0984 84.2184 37.2761 85.8044L40.8489 90.614C41.3156 91.2425 42.0003 91.6801 42.7843 91.8511C43.5683 92.022 44.4022 91.9155 45.1413 91.55L122.606 53.2405C125.205 51.9555 128.038 54.0705 127.412 56.8282L127.456 56.6353C127.671 55.6867 127.612 54.7108 127.284 53.82C126.956 52.9292 126.374 52.1595 125.603 51.5996Z" fill="#0065A9"/>
<path d="M111.252 114.816L92.6474 119.93C91.5967 120.219 90.4963 120.184 89.4985 119.832C88.5006 119.479 87.6546 118.825 87.0776 117.961L43.3724 58.9324C42.197 57.3448 42.7217 55.0421 44.504 53.965L49.9103 50.6979C50.6166 50.2711 51.4411 50.0929 52.2409 50.1941C53.0408 50.2954 53.7654 50.6697 54.2893 51.2523L109.197 112.307C111.039 114.355 114.584 113.336 115.21 110.578L115.166 110.772C114.951 111.72 114.469 112.603 113.777 113.318C113.085 114.034 112.209 114.553 111.252 114.816Z" fill="#007ACC"/>
<path d="M92.5933 119.927C91.5424 120.216 90.4419 120.181 89.444 119.828C88.4461 119.475 87.6001 118.822 87.023 117.957C88.4802 120.139 91.9927 119.375 92.5897 116.745L109.182 43.6532C109.779 41.0232 106.865 39.1542 104.563 40.6907C105.475 40.0822 106.543 39.7573 107.62 39.7609C108.697 39.7645 109.73 40.0964 110.576 40.7108L125.549 51.5827C126.32 52.1425 126.903 52.9123 127.231 53.8034C127.559 54.6945 127.619 55.6707 127.404 56.6197L115.109 110.779C114.669 112.716 113.147 114.289 111.193 114.825L92.5933 119.927Z" fill="#1F9CF0"/>
</g>
</g>
</g>
<defs>
<filter id="filter0_ddi_98_4" x="-4.66467" y="0" width="170.729" height="161.368" filterUnits="userSpaceOnUse" color-interpolation-filters="sRGB">
<feFlood flood-opacity="0" result="BackgroundImageFix"/>
<feColorMatrix in="SourceAlpha" type="matrix" values="0 0 0 0 0 0 0 0 0 0 0 0 0 0 0 0 0 0 127 0" result="hardAlpha"/>
<feOffset dx="-5" dy="5"/>
<feComposite in2="hardAlpha" operator="out"/>
<feColorMatrix type="matrix" values="0 0 0 0 0.0196078 0 0 0 0 0.0196078 0 0 0 0 0.278431 0 0 0 1 0"/>
<feBlend mode="normal" in2="BackgroundImageFix" result="effect1_dropShadow_98_4"/>
<feColorMatrix in="SourceAlpha" type="matrix" values="0 0 0 0 0 0 0 0 0 0 0 0 0 0 0 0 0 0 127 0" result="hardAlpha"/>
<feOffset dy="4"/>
<feGaussianBlur stdDeviation="2"/>
<feComposite in2="hardAlpha" operator="out"/>
<feColorMatrix type="matrix" values="0 0 0 0 0 0 0 0 0 0 0 0 0 0 0 0 0 0 0.25 0"/>
<feBlend mode="normal" in2="effect1_dropShadow_98_4" result="effect2_dropShadow_98_4"/>
<feBlend mode="normal" in="SourceGraphic" in2="effect2_dropShadow_98_4" result="shape"/>
<feColorMatrix in="SourceAlpha" type="matrix" values="0 0 0 0 0 0 0 0 0 0 0 0 0 0 0 0 0 0 127 0" result="hardAlpha"/>
<feOffset dx="-5" dy="4"/>
<feGaussianBlur stdDeviation="2"/>
<feComposite in2="hardAlpha" operator="arithmetic" k2="-1" k3="1"/>
<feColorMatrix type="matrix" values="0 0 0 0 0.762305 0 0 0 0 0.762305 0 0 0 0 0.762305 0 0 0 0.25 0"/>
<feBlend mode="normal" in2="shape" result="effect3_innerShadow_98_4"/>
</filter>
<filter id="filter1_f_98_4" x="35.7629" y="5.27148" width="113.937" height="31.1996" filterUnits="userSpaceOnUse" color-interpolation-filters="sRGB">
<feFlood flood-opacity="0" result="BackgroundImageFix"/>
<feBlend mode="normal" in="SourceGraphic" in2="BackgroundImageFix" result="shape"/>
<feGaussianBlur stdDeviation="1" result="effect1_foregroundBlur_98_4"/>
</filter>
<filter id="filter2_f_98_4" x="11.2716" y="118.678" width="113.937" height="31.1996" filterUnits="userSpaceOnUse" color-interpolation-filters="sRGB">
<feFlood flood-opacity="0" result="BackgroundImageFix"/>
<feBlend mode="normal" in="SourceGraphic" in2="BackgroundImageFix" result="shape"/>
<feGaussianBlur stdDeviation="1" result="effect1_foregroundBlur_98_4"/>
</filter>
<filter id="filter3_f_98_4" x="119.731" y="27.3394" width="33.8394" height="117.065" filterUnits="userSpaceOnUse" color-interpolation-filters="sRGB">
<feFlood flood-opacity="0" result="BackgroundImageFix"/>
<feBlend mode="normal" in="SourceGraphic" in2="BackgroundImageFix" result="shape"/>
<feGaussianBlur stdDeviation="1" result="effect1_foregroundBlur_98_4"/>
</filter>
<filter id="filter4_f_98_4" x="5.54742" y="8.56018" width="42.9264" height="118.181" filterUnits="userSpaceOnUse" color-interpolation-filters="sRGB">
<feFlood flood-opacity="0" result="BackgroundImageFix"/>
<feBlend mode="normal" in="SourceGraphic" in2="BackgroundImageFix" result="shape"/>
<feGaussianBlur stdDeviation="2" result="effect1_foregroundBlur_98_4"/>
</filter>
<linearGradient id="paint0_linear_98_4" x1="39.7236" y1="11.2965" x2="145.869" y2="35.3928" gradientUnits="userSpaceOnUse">
<stop stop-color="white" stop-opacity="0.04"/>
<stop offset="0.509064" stop-color="white"/>
<stop offset="1" stop-color="#999999" stop-opacity="0.11"/>
</linearGradient>
<linearGradient id="paint1_linear_98_4" x1="121.248" y1="143.853" x2="15.102" y2="119.756" gradientUnits="userSpaceOnUse">
<stop stop-color="white" stop-opacity="0.04"/>
<stop offset="0.509064" stop-color="white"/>
<stop offset="1" stop-color="#999999" stop-opacity="0.11"/>
</linearGradient>
<linearGradient id="paint2_linear_98_4" x1="124.265" y1="141.838" x2="143.544" y2="29.6427" gradientUnits="userSpaceOnUse">
<stop stop-color="white" stop-opacity="0.61"/>
<stop offset="0.509064" stop-color="white"/>
<stop offset="1" stop-color="#999999" stop-opacity="0.11"/>
</linearGradient>
<linearGradient id="paint3_linear_98_4" x1="38.8987" y1="12.6746" x2="20.1274" y2="121.917" gradientUnits="userSpaceOnUse">
<stop stop-color="white" stop-opacity="0.04"/>
<stop offset="0.509064" stop-color="white"/>
<stop offset="1" stop-color="#999999" stop-opacity="0.11"/>
</linearGradient>
<clipPath id="clip0_98_4">
<rect width="134" height="134" rx="30" transform="matrix(0.985556 0.16935 -0.221378 0.975188 30 0)" fill="white"/>
</clipPath>
<clipPath id="clip1_98_4">
<rect width="83" height="82.3516" fill="white" transform="matrix(0.985556 0.16935 -0.221378 0.975188 48.8831 29.5886)"/>
</clipPath>
</defs>
</svg>
